<svg width="128" height="128" viewBox="0 0 128 128" fill="none" xmlns="http://www.w3.org/2000/svg">
<rect width="128" height="128" rx="32" fill="white"/>
<path d="M99.9618 56.4827C100.671 54.3802 101.033 52.1789 101.033 49.9631C101.033 46.2965 100.043 42.6962 98.1652 39.5321C94.3922 33.0522 87.3933 29.0515 79.8187 29.0515C78.3264 29.0515 76.8383 29.207 75.3792 29.5154C73.4165 27.3336 71.0075 25.5871 68.3108 24.391C65.6141 23.1949 62.6911 22.5765 59.7345 22.5764H59.6017L59.5519 22.5767C50.3776 22.5767 42.2417 28.4178 39.4214 37.0288C36.5021 37.6188 33.7441 38.8173 31.3323 40.5441C28.9204 42.2709 26.9102 44.4861 25.4362 47.0415C23.5643 50.2246 22.5778 53.8391 22.5767 57.5193C22.5774 62.6913 24.5231 67.679 28.0372 71.5167C27.3278 73.6191 26.9661 75.8205 26.9658 78.0363C26.9661 81.7029 27.9559 85.3032 29.8335 88.4672C32.0663 92.303 35.4761 95.34 39.5711 97.1402C43.6662 98.9404 48.2349 99.4109 52.6184 98.4837C54.5812 100.665 56.9905 102.412 59.6874 103.608C62.3842 104.804 65.3074 105.423 68.2642 105.423H68.397L68.4509 105.423C77.6301 105.423 85.7635 99.5813 88.5837 90.9625C91.5031 90.3723 94.261 89.1737 96.6729 87.4469C99.0848 85.72 101.095 83.5048 102.569 80.9495C104.439 77.7692 105.424 74.1577 105.423 70.481C105.423 65.3091 103.477 60.3214 99.9627 56.4838L99.9618 56.4827ZM68.4022 100.007H68.3806C64.7075 100.006 61.1511 98.7342 58.3298 96.4136C58.4973 96.3246 58.6629 96.2321 58.8264 96.136L75.5445 86.6078C75.9617 86.3734 76.3086 86.0343 76.55 85.6249C76.7913 85.2154 76.9186 84.7502 76.9187 84.2765V61.0051L83.985 65.031C84.0221 65.0492 84.0541 65.0762 84.0781 65.1095C84.102 65.1429 84.1173 65.1816 84.1225 65.2221V84.481C84.1128 93.0435 77.0808 99.9894 68.4022 100.007ZM34.5952 85.76C33.2143 83.4041 32.4867 80.7307 32.4858 78.0091C32.4858 77.1215 32.5644 76.2315 32.7174 75.3569C32.8417 75.4303 33.0586 75.5611 33.2143 75.6493L49.9324 85.1775C50.3492 85.4176 50.8231 85.5441 51.3058 85.544C51.7884 85.5439 52.2623 85.4172 52.679 85.1769L73.0901 73.5483V81.6003L73.0904 81.6141C73.0904 81.6529 73.0812 81.6912 73.0637 81.7258C73.0461 81.7605 73.0206 81.7907 72.9892 81.814L56.0888 91.442C53.6975 92.8 50.9869 93.515 48.2278 93.5158C45.4658 93.5154 42.7524 92.7986 40.3597 91.4372C37.967 90.0758 35.9791 88.1177 34.5952 85.7591V85.76ZM30.197 49.7487C32.0332 46.6019 34.9325 44.1924 38.3875 42.9419C38.3875 43.0839 38.3793 43.3356 38.3793 43.5103V62.567L38.379 62.5826C38.3791 63.0558 38.5061 63.5205 38.7471 63.9296C38.9881 64.3387 39.3345 64.6775 39.7512 64.9118L60.1622 76.5387L53.0962 80.5645C53.0613 80.5872 53.0213 80.601 52.9797 80.6047C52.9382 80.6085 52.8963 80.602 52.8579 80.5859L35.9557 70.9498C33.5663 69.5841 31.5827 67.6227 30.2036 65.2622C28.8245 62.9017 28.0985 60.2251 28.0982 57.5005C28.0992 54.7801 28.8232 52.1076 30.1979 49.7496L30.197 49.7487ZM88.254 63.0792L67.8429 51.4509L74.9093 47.4265C74.9441 47.4038 74.9841 47.3899 75.0257 47.3862C75.0673 47.3825 75.1092 47.389 75.1476 47.4051L92.0495 57.0331C94.4408 58.3967 96.4265 60.357 97.8073 62.7173C99.188 65.0775 99.9152 67.7546 99.9158 70.4798C99.9158 76.9844 95.8022 82.8046 89.6171 85.0511V65.4246C89.6179 65.4174 89.6179 65.4099 89.6179 65.4026C89.6178 64.9312 89.4916 64.4681 89.2521 64.0602C89.0127 63.6523 88.6684 63.3139 88.254 63.0792ZM95.2872 52.6347C95.1228 52.5354 94.9573 52.438 94.7906 52.3426L78.0725 42.8141C77.6557 42.5744 77.1819 42.4481 76.6994 42.4479C76.217 42.4481 75.7432 42.5744 75.3264 42.8141L54.9151 54.4427V46.3907L54.9148 46.3768C54.9148 46.2982 54.9526 46.2241 55.0162 46.177L71.9166 36.5571C74.3072 35.1973 77.018 34.4814 79.7774 34.4813C88.4671 34.4813 95.5141 41.4344 95.5141 50.0085C95.5136 50.8883 95.4377 51.7666 95.2872 52.6338V52.6347ZM51.0732 66.9859L44.0055 62.96C43.9684 62.9418 43.9364 62.9148 43.9124 62.8815C43.8884 62.8481 43.8732 62.8094 43.868 62.7689V43.5097C43.8718 34.9403 50.9188 27.9929 59.6047 27.9929C63.2834 27.9936 66.8458 29.2652 69.6736 31.5869C69.5464 31.6555 69.3245 31.7763 69.177 31.8646L52.4589 41.3928C52.0418 41.6269 51.6949 41.9659 51.4536 42.3752C51.2123 42.7845 51.0851 43.2496 51.085 43.7231V43.7385L51.0732 66.9859ZM54.9119 58.82L64.0026 53.6392L73.0933 58.8165V69.1745L64.0026 74.3521L54.9119 69.1745V58.82Z" fill="black"/>
</svg>
