<svg width="128" height="128" viewBox="0 0 128 128" fill="none" xmlns="http://www.w3.org/2000/svg">
<path d="M105.6 0H22.4C10.0288 0 0 10.0288 0 22.4V105.6C0 117.971 10.0288 128 22.4 128H105.6C117.971 128 128 117.971 128 105.6V22.4C128 10.0288 117.971 0 105.6 0Z" fill="#001E36"/>
<path d="M28.7998 90.7479V36.5877C28.7998 36.2001 28.9939 36.0062 29.3822 36.0062C33.5974 35.8955 38.9497 35.8401 45.4389 35.8401C53.0929 35.8401 58.6948 37.5568 62.2445 40.9903C65.8496 44.4238 67.6522 48.6602 67.6522 53.6997C67.6522 59.9575 65.4336 64.6093 60.9965 67.6551C56.5594 70.7009 50.9853 72.2238 44.2742 72.2238H39.3657V90.6649C39.3657 91.1079 39.1438 91.3294 38.7001 91.3294H29.4654C29.0217 91.3294 28.7998 91.1356 28.7998 90.7479ZM39.3657 43.8146V64.2493C40.1421 64.3601 41.9447 64.4154 44.7734 64.4154C48.4894 64.4154 51.4845 63.6124 53.7585 62.0065C56.088 60.3451 57.2527 57.6592 57.2527 53.9489C57.2527 50.6815 56.2266 48.1618 54.1745 46.3897C52.1778 44.6176 49.2659 43.7315 45.4389 43.7315C44.4961 43.7315 43.5532 43.7592 42.6103 43.8146C41.7229 43.8146 40.9741 43.8146 40.364 43.8146C39.8094 43.8146 39.4766 43.8146 39.3657 43.8146Z" fill="#31A8FE"/>
<path d="M96.6784 60.4282C93.5724 58.4899 90.3278 57.5208 86.9445 57.5208C85.0032 57.5208 83.5612 57.8808 82.6183 58.6007C81.7309 59.3206 81.2872 60.179 81.2872 61.1758C81.2872 62.1726 81.6754 63.0587 82.4519 63.834C83.2284 64.5539 84.8646 65.4122 87.3605 66.4091C91.964 68.1812 95.1808 70.064 97.0112 72.0577C98.8969 73.9959 99.8398 76.5156 99.8398 79.6168C99.8398 83.3826 98.3977 86.4284 95.5136 88.7543C92.685 91.0248 88.8302 92.1601 83.9494 92.1601C79.0686 92.1601 75.0752 91.274 71.9693 89.5019C71.6365 89.3912 71.4701 89.1143 71.4701 88.6712V80.9459C71.4701 80.7244 71.5255 80.586 71.6365 80.5306C71.8029 80.4198 71.9415 80.4198 72.0525 80.5306C75.6576 83.1888 79.5123 84.5178 83.6167 84.5178C85.5579 84.5178 87.0277 84.1856 88.026 83.521C89.0798 82.8011 89.6067 81.8874 89.6067 80.7798C89.6067 79.6168 89.1908 78.6477 88.3588 77.8724C87.5269 77.0417 85.8907 76.1557 83.4503 75.2142C79.0132 73.4975 75.9072 71.67 74.1323 69.7318C72.413 67.7381 71.5533 65.2461 71.5533 62.2557C71.5533 58.8222 72.8567 55.9425 75.4635 53.6166C78.0703 51.2907 81.7863 50.1278 86.6117 50.1278C91.1043 50.1278 94.5707 50.7369 97.0112 51.9552C97.2885 52.1214 97.4271 52.4813 97.4271 53.0351V59.9298C97.4271 60.5943 97.1775 60.7604 96.6784 60.4282Z" fill="#31A8FE"/>
</svg>
