<svg width="128" height="128" viewBox="0 0 128 128" fill="none" xmlns="http://www.w3.org/2000/svg">
<path d="M105.6 0H22.4C10.0288 0 0 10.0288 0 22.4V105.6C0 117.971 10.0288 128 22.4 128H105.6C117.971 128 128 117.971 128 105.6V22.4C128 10.0288 117.971 0 105.6 0Z" fill="#2E0501"/>
<path d="M65.0631 78.1563H45.8035L40.9886 92.7719C40.9332 93.2173 40.6289 93.4401 40.0754 93.4401H31.3588C30.8054 93.4401 30.6117 93.1617 30.7777 92.6049L48.0449 42.9953C48.4323 42.1602 48.6814 40.6012 48.792 38.3184C48.792 37.9843 48.9857 37.8173 49.3732 37.8173H61.3274C61.6041 37.8173 61.8255 37.9564 61.9915 38.2348L81.2511 92.6884C81.4171 93.1895 81.2511 93.4401 80.753 93.4401H70.9572C70.5698 93.4401 70.2931 93.2452 70.127 92.8554L65.0631 78.1563ZM47.9619 70.0551H62.9047C62.6833 69.2756 61.5211 65.74 59.418 59.4483C57.3703 53.101 56.0144 48.7581 55.3503 46.4196H55.2673C54.6031 49.2592 52.168 57.1377 47.9619 70.0551Z" fill="#F2A032"/>
<path d="M86.4052 92.6884V53.4351C86.4052 52.9896 86.6266 52.7669 87.0693 52.7669H96.284C96.7268 52.7669 96.9481 52.9896 96.9481 53.4351V92.7719C96.9481 93.2173 96.7268 93.4401 96.284 93.4401H87.1523C86.6542 93.4401 86.4052 93.1895 86.4052 92.6884ZM95.7859 44.3316C94.7897 45.3338 93.4338 45.835 91.7182 45.835C90.0025 45.835 88.6466 45.3338 87.6504 44.3316C86.6542 43.3294 86.1561 41.9653 86.1561 40.2393C86.1561 38.5689 86.6819 37.2048 87.7334 36.1469C88.785 35.089 90.1409 34.5601 91.8012 34.5601C93.4615 34.5601 94.7897 35.089 95.7859 36.1469C96.7821 37.2048 97.2802 38.5689 97.2802 40.2393C97.2802 41.9653 96.7821 43.3294 95.7859 44.3316Z" fill="#F2A032"/>
</svg>
