<svg width="128" height="128" viewBox="0 0 128 128" fill="none" xmlns="http://www.w3.org/2000/svg">
<g clip-path="url(#clip0_92_782)">
<path d="M22.6667 1.0317e-05H105.333C108.311 -0.00286788 111.259 0.596491 114.011 1.76379C116.762 2.93108 119.262 4.6434 121.367 6.80273C123.473 8.96207 125.142 11.526 126.28 14.3479C127.418 17.1698 128.003 20.1941 128 23.2479V104.752C128.003 107.806 127.418 110.83 126.28 113.652C125.142 116.474 123.473 119.038 121.367 121.197C119.262 123.357 116.762 125.069 114.011 126.236C111.259 127.404 108.311 128.003 105.333 128H22.6667C19.6893 128.003 16.7405 127.404 13.9892 126.236C11.2379 125.069 8.73802 123.357 6.63266 121.197C4.52731 119.038 2.8578 116.474 1.71969 113.652C0.581579 110.83 -0.00279618 107.806 1.00591e-05 104.752V23.2479C-0.00279618 20.1941 0.581579 17.1698 1.71969 14.3479C2.8578 11.526 4.52731 8.96207 6.63266 6.80273C8.73802 4.6434 11.2379 2.93108 13.9892 1.76379C16.7405 0.596491 19.6893 -0.00286788 22.6667 1.0317e-05V1.0317e-05Z" fill="#000B1D"/>
<path d="M51.7337 103.04C59.0975 103.04 65.0671 97.0704 65.0671 89.7066V76.3733H51.7337C44.3699 76.3733 38.4004 82.3428 38.4004 89.7066C38.4004 97.0704 44.3699 103.04 51.7337 103.04Z" fill="#0ACF83"/>
<path d="M38.4004 63.0401C38.4004 55.6763 44.3699 49.7068 51.7337 49.7068H65.0671V76.3735H51.7337C44.3699 76.3735 38.4004 70.4039 38.4004 63.0401Z" fill="#A259FF"/>
<path d="M38.4004 36.3734C38.4004 29.0096 44.3699 23.04 51.7337 23.04H65.0671V49.7067H51.7337C44.3699 49.7067 38.4004 43.7372 38.4004 36.3734Z" fill="#F24E1E"/>
<path d="M65.0669 23.04H78.4002C85.764 23.04 91.7336 29.0096 91.7336 36.3734C91.7336 43.7372 85.764 49.7067 78.4002 49.7067H65.0669V23.04Z" fill="#FF7262"/>
<path d="M91.7336 63.0401C91.7336 70.4039 85.764 76.3735 78.4002 76.3735C71.0364 76.3735 65.0669 70.4039 65.0669 63.0401C65.0669 55.6763 71.0364 49.7068 78.4002 49.7068C85.764 49.7068 91.7336 55.6763 91.7336 63.0401Z" fill="#1ABCFE"/>
</g>
<defs>
<clipPath id="clip0_92_782">
<rect width="128" height="128" fill="white"/>
</clipPath>
</defs>
</svg>
