<svg width="128" height="128" viewBox="0 0 128 128" fill="none" xmlns="http://www.w3.org/2000/svg">
<path d="M105.6 0H22.4C10.0288 0 0 10.0288 0 22.4V105.6C0 117.971 10.0288 128 22.4 128H105.6C117.971 128 128 117.971 128 105.6V22.4C128 10.0288 117.971 0 105.6 0Z" fill="#000058"/>
<path d="M53.8601 74.8168H36.1326L31.5551 89.4651C31.4996 89.909 31.2221 90.1309 30.7228 90.1309H22.4C21.8451 90.1309 21.6509 89.8535 21.8174 89.2986L37.8804 40.2769C38.2688 39.2227 38.4907 37.6968 38.5462 35.6993C38.5462 35.3664 38.7127 35.2 39.0456 35.2H50.6975C51.0304 35.2 51.2246 35.3387 51.2801 35.6161L69.2573 89.3818C69.4238 89.8812 69.2851 90.1309 68.8412 90.1309H59.5196C59.1312 90.1309 58.8538 89.9644 58.6874 89.6315L53.8601 74.8168ZM38.1301 66.9101H51.9459C51.613 65.7449 50.9194 63.47 49.8652 60.0853C48.811 56.7007 47.84 53.538 46.9522 50.5973C46.0645 47.6565 45.3986 45.3261 44.9548 43.6061H44.8715C44.2612 46.4913 42.014 54.2593 38.1301 66.9101Z" fill="#9999F9"/>
<path d="M96.7518 71.6541H81.5211C81.5766 75.2052 82.5753 78.0072 84.5173 80.0602C86.4593 82.1132 89.3722 83.1397 93.2562 83.1397C96.8073 83.1397 99.9699 82.5293 102.744 81.3087C103.077 81.0867 103.244 81.1977 103.244 81.6416V87.7173C103.244 88.1057 103.077 88.4386 102.744 88.716C99.5815 90.1586 95.6976 90.88 91.0923 90.88C84.2676 90.88 79.2462 88.9379 76.028 85.0539C72.8654 81.1145 71.284 76.204 71.284 70.3225C71.284 64.219 72.9486 59.1143 76.2777 55.0084C79.6068 50.9024 84.1566 48.8495 89.9271 48.8495C95.4201 48.8495 99.4983 50.5418 102.162 53.9264C104.88 57.311 106.24 61.2783 106.24 65.8281C106.24 68.103 106.129 69.7121 105.907 70.6554C105.851 71.0438 105.629 71.2657 105.241 71.3212C103.798 71.5432 100.969 71.6541 96.7518 71.6541ZM81.5211 65.2455H92.5072C94.893 65.2455 96.2524 65.19 96.5853 65.0791C96.6408 64.8571 96.6686 64.4687 96.6686 63.9139C96.6686 61.8054 96.1137 59.9189 95.004 58.2543C93.8943 56.5897 92.091 55.7574 89.5942 55.7574C87.1528 55.7574 85.2663 56.6452 83.9347 58.4208C82.603 60.1963 81.7985 62.4712 81.5211 65.2455Z" fill="#9999F9"/>
</svg>
