<svg width="200" height="200" viewBox="0 0 200 200" fill="none" xmlns="http://www.w3.org/2000/svg">
<path d="M165 0H35C15.67 0 0 15.67 0 35V165C0 184.33 15.67 200 35 200H165C184.33 200 200 184.33 200 165V35C200 15.67 184.33 0 165 0Z" fill="#000058"/>
<path d="M49 142.091V58.1692C49 57.5629 49.2609 57.2598 49.7828 57.2598C55.3492 57.0866 63.177 57 73.2662 57C84.747 57 93.1836 59.6415 98.5761 64.9245C104.056 70.1209 106.795 76.6596 106.795 84.5408C106.795 94.0675 103.447 101.256 96.7496 106.106C90.1395 110.869 81.7463 113.251 71.5702 113.251C70.3525 113.251 68.9174 113.251 67.2649 113.251C65.6993 113.164 64.8731 113.121 64.7861 113.121V142.091C64.7861 142.697 64.4382 143 63.7424 143H49.9132C49.3044 143 49 142.697 49 142.091ZM64.7861 69.0816V101.039C66.0037 101.212 68.526 101.299 72.353 101.299C77.8324 101.299 82.3117 100.043 85.7907 97.5317C89.2697 94.9335 91.0092 90.6898 91.0092 84.8006C91.0092 79.7774 89.4437 75.8802 86.3125 73.1088C83.2684 70.2508 78.9196 68.8218 73.2662 68.8218C68.6565 68.8218 65.8298 68.9084 64.7861 69.0816Z" fill="#9999F9"/>
<path d="M115.123 79.7341H127.386C128.082 79.7341 128.56 80.0806 128.821 80.7734C129.517 82.5055 129.952 85.0171 130.126 88.3082C135.17 81.8127 141.824 78.565 150.087 78.565C150.696 78.565 151 78.8681 151 79.4743V92.5952C151 93.288 150.652 93.5911 149.956 93.5045C142.389 93.0715 136.432 95.0201 132.083 99.3505C131.3 100.13 130.909 101.169 130.909 102.468V142.091C130.909 142.697 130.561 143 129.865 143H116.166C115.383 143 114.992 142.654 114.992 141.961V98.0514C114.992 91.0363 114.775 85.2336 114.34 80.6435C114.253 80.0373 114.514 79.7341 115.123 79.7341Z" fill="#9999F9"/>
</svg>
