<svg width="128" height="128" viewBox="0 0 128 128" fill="none" xmlns="http://www.w3.org/2000/svg">
<path d="M105.6 0H22.4C10.0288 0 0 10.0288 0 22.4V105.6C0 117.971 10.0288 128 22.4 128H105.6C117.971 128 128 117.971 128 105.6V22.4C128 10.0288 117.971 0 105.6 0Z" fill="#430C1F"/>
<path d="M47.2716 39.0027V92.5801C47.2716 93.08 47.0478 93.33 46.6004 93.33H37.7913C37.3438 93.33 37.1201 93.08 37.1201 92.5801V39.0027C37.1201 38.5583 37.3438 38.3361 37.7913 38.3361H46.6843C47.0758 38.3361 47.2716 38.5583 47.2716 39.0027Z" fill="#EC4E68"/>
<path d="M74.5923 94.0799C68.328 94.0799 63.3222 92.3301 59.5748 88.8305C55.8275 85.3309 53.9538 80.1648 53.9538 73.3322C53.9538 67.1107 55.9673 62.0001 59.9943 58.0006C64.0213 54.001 69.3907 52.0013 76.1024 52.0013C77.7803 52.0013 79.2345 52.1401 80.465 52.4179V34.4199C80.465 34.0866 80.6328 33.9199 80.9684 33.9199H90.197C90.4766 33.9199 90.6164 34.0866 90.6164 34.4199V84.331C90.6164 86.4419 90.7003 88.275 90.8681 89.8304C90.9241 90.1637 90.7842 90.4137 90.4486 90.5803C85.5827 92.9134 80.2972 94.0799 74.5923 94.0799ZM80.465 85.8308V60.0837C79.3464 59.4726 77.8362 59.1671 75.9346 59.1671C72.5228 59.1671 69.7542 60.3614 67.6289 62.7501C65.5035 65.1387 64.4408 68.5272 64.4408 72.9156C64.4408 77.5818 65.4755 81.0258 67.545 83.2478C69.6703 85.4698 72.355 86.5808 75.599 86.5808C77.6125 86.5808 79.2345 86.3308 80.465 85.8308Z" fill="#EC4E68"/>
</svg>
