<svg width="15" height="15" viewBox="0 0 15 15" fill="none" xmlns="http://www.w3.org/2000/svg">
<path d="M7.5 15C11.6421 15 15 11.6421 15 7.5C15 3.35786 11.6421 0 7.5 0C3.35786 0 0 3.35786 0 7.5C0 11.6421 3.35786 15 7.5 15Z" fill="#0052FF"/>
<path d="M6.49032 8.06106H5.92459C5.90171 8.06106 5.88147 8.07708 5.87444 8.1011L4.9638 10.8549L4.96996 10.9119C4.97964 10.9289 4.99636 10.9389 5.01483 10.9389H5.61048C5.63424 10.9389 5.65448 10.9219 5.66239 10.8959L5.80053 10.4234H6.61438L6.75252 10.8959C6.75955 10.9209 6.78067 10.9389 6.80355 10.9389H7.40008C7.41767 10.9389 7.43439 10.9289 7.44407 10.9119L7.45023 10.8549L6.54135 8.1011C6.53256 8.07708 6.5132 8.06106 6.49032 8.06106ZM5.97122 9.83784L6.20789 9.02803L6.44369 9.83784H5.97122ZM4.55732 9.44845C4.69545 9.2993 4.78167 9.0991 4.78167 8.87788C4.78167 8.42042 4.41742 8.04805 3.97134 8.04805H3.05455C3.02464 8.04805 3 8.07507 3 8.11011V10.8909C3 10.9249 3.02464 10.953 3.05455 10.953H4.0866C4.53356 10.953 4.89693 10.5806 4.89693 10.1221C4.89693 9.84384 4.76232 9.5996 4.55732 9.44845ZM3.93439 9.19019H3.59565L3.58421 8.7017L3.58245 8.61762H3.58421L3.63876 8.61461L3.93351 8.6026C4.06988 8.6026 4.17986 8.73373 4.17986 8.8959C4.18074 9.05906 4.06988 9.19019 3.93439 9.19019ZM3.95375 10.4154H3.59741V10.4144L3.58421 9.75075L3.63876 9.74875L3.92207 9.73774L3.95375 9.73674C3.95727 9.73674 3.96078 9.73774 3.96342 9.73774C4.10948 9.74474 4.22738 9.89289 4.22738 10.0761C4.22738 10.2593 4.11036 10.4084 3.96342 10.4154C3.96078 10.4144 3.95815 10.4154 3.95375 10.4154ZM9.39291 9.95996L9.36916 9.96597C9.21607 10.1041 8.95299 10.2082 8.75679 10.2082C8.37846 10.2082 8.11451 9.91692 8.11451 9.5005C8.11451 9.08308 8.37846 8.79179 8.75679 8.79179C8.96179 8.79179 9.17207 8.86687 9.30493 8.98699L9.32869 8.99399L9.34804 8.97798L9.65159 8.34935L9.64455 8.30731C9.41403 8.1011 9.12368 8 8.75415 8C7.96757 8 7.39656 8.63063 7.39656 9.5005C7.39656 10.3694 7.96757 11 8.75415 11C9.114 11 9.42547 10.8749 9.67798 10.6296L9.68502 10.5896L9.41227 9.97698L9.39291 9.95996ZM11.1781 9.37838L11.8978 8.14414C11.9032 8.13486 11.9062 8.12411 11.9067 8.11302C11.9072 8.10193 11.905 8.0909 11.9005 8.08108C11.8957 8.07127 11.8887 8.0631 11.8801 8.05746C11.8716 8.05182 11.8619 8.04892 11.8521 8.04905H11.2608C11.2423 8.04905 11.2256 8.05906 11.2151 8.07608L10.5622 9.1962V8.10911C10.5622 8.07507 10.5376 8.04705 10.5077 8.04705H9.97713C9.94721 8.04705 9.92346 8.07407 9.92346 8.10911V10.8899C9.92346 10.9239 9.94809 10.952 9.97713 10.952H10.5077C10.5376 10.952 10.5622 10.9239 10.5622 10.8899V9.56757L11.3083 10.9239C11.3189 10.9419 11.3356 10.953 11.3541 10.953H11.9462C11.9664 10.953 11.984 10.9409 11.9928 10.9209C11.9977 10.9115 12.0001 10.9007 12 10.8898C11.9998 10.8788 11.9971 10.8681 11.992 10.8589L11.1781 9.37838Z" fill="white"/>
<path d="M3 4.99971L7.3528 3V4.24739H12V5.73944H7.3528V7L3 4.99971Z" fill="white"/>
</svg>
