<svg width="128" height="128" viewBox="0 0 128 128" fill="none" xmlns="http://www.w3.org/2000/svg">
<g clip-path="url(#clip0_92_773)">
<path d="M22.6667 1.0317e-05H105.333C108.311 -0.00286788 111.259 0.596491 114.011 1.76379C116.762 2.93108 119.262 4.64339 121.367 6.80273C123.473 8.96207 125.142 11.526 126.28 14.3479C127.418 17.1698 128.003 20.1941 128 23.2479V104.752C128.003 107.806 127.418 110.83 126.28 113.652C125.142 116.474 123.473 119.038 121.367 121.197C119.262 123.357 116.762 125.069 114.011 126.236C111.259 127.404 108.311 128.003 105.333 128H22.6667C19.6893 128.003 16.7405 127.404 13.9892 126.236C11.2379 125.069 8.73802 123.357 6.63266 121.197C4.52731 119.038 2.8578 116.474 1.71969 113.652C0.581579 110.83 -0.00279618 107.806 1.00591e-05 104.752V23.2479C-0.00279618 20.1941 0.581579 17.1698 1.71969 14.3479C2.8578 11.526 4.52731 8.96207 6.63266 6.80273C8.73802 4.64339 11.2379 2.93108 13.9892 1.76379C16.7405 0.596491 19.6893 -0.00286788 22.6667 1.0317e-05Z" fill="#F0F0F0"/>
<path d="M64.0079 113.594L35.2161 105.601L28.7998 33.637H99.3022L92.8793 105.59L64.0079 113.594V113.594Z" fill="#264DE4"/>
<path d="M87.3808 101.009L92.8693 39.521H64.0513V107.476L87.3808 101.009V101.009Z" fill="#2965F1"/>
<path d="M43.5091 66.2117L44.3 75.0378H64.0512V66.2117H43.5091ZM41.9194 48.3474L42.7217 57.1735H64.0512V48.3474H41.9194V48.3474ZM64.0512 89.1341L64.0125 89.1444L54.1829 86.4902L53.5545 79.451H44.6944L45.9308 93.3094L64.0106 98.3281L64.0512 98.317V89.1341Z" fill="#EBEBEB"/>
<path d="M45.3926 14.0801H56.0822V18.5505H49.863V23.0209H56.0828V27.491H45.3926V14.0801ZM58.2204 14.0801H68.9103V17.9674H62.6908V18.7448H68.9103V27.6856H58.2207V23.6035H64.4402V22.8261H58.2201V14.0801H58.2204ZM71.0485 14.0801H81.7384V17.9674H75.5189V18.7448H81.7384V27.6856H71.0485V23.6035H77.268V22.8261H71.0488V14.0801H71.0485Z" fill="black"/>
<path d="M84.537 66.2117L86.1302 48.3474H64.0208V57.1735H76.4576L75.6545 66.2117H64.0208V75.0378H74.8892L73.8645 86.4847L64.0205 89.1416V98.324L82.1147 93.3094L82.2473 91.8181L84.3217 68.5817L84.537 66.2117V66.2117Z" fill="white"/>
</g>
<defs>
<clipPath id="clip0_92_773">
<rect width="128" height="128" fill="white"/>
</clipPath>
</defs>
</svg>
