<svg width="128" height="128" viewBox="0 0 128 128" fill="none" xmlns="http://www.w3.org/2000/svg">
<path d="M22.6667 1.0317e-05H105.333C108.311 -0.00286788 111.259 0.596491 114.011 1.76379C116.762 2.93108 119.262 4.6434 121.367 6.80273C123.473 8.96207 125.142 11.526 126.28 14.3479C127.418 17.1698 128.003 20.1941 128 23.2479V104.752C128.003 107.806 127.418 110.83 126.28 113.652C125.142 116.474 123.473 119.038 121.367 121.197C119.262 123.357 116.762 125.069 114.011 126.236C111.259 127.404 108.311 128.003 105.333 128H22.6667C19.6893 128.003 16.7405 127.404 13.9892 126.236C11.2379 125.069 8.73802 123.357 6.63266 121.197C4.52731 119.038 2.8578 116.474 1.71969 113.652C0.581579 110.83 -0.00279618 107.806 1.00591e-05 104.752V23.2479C-0.00279618 20.1941 0.581579 17.1698 1.71969 14.3479C2.8578 11.526 4.52731 8.96207 6.63266 6.80273C8.73802 4.6434 11.2379 2.93108 13.9892 1.76379C16.7405 0.596491 19.6893 -0.00286788 22.6667 1.0317e-05V1.0317e-05Z" fill="#000B1D"/>
<path d="M105.247 29.1958L86.9551 20.3884C84.8378 19.369 82.3074 19.799 80.6458 21.4607L20.7639 76.0589C19.1533 77.5273 19.1551 80.0632 20.7679 81.5294L25.6593 85.9761C26.9778 87.1747 28.9636 87.263 30.3832 86.186L102.495 31.4806C104.914 29.6453 108.389 31.3708 108.389 34.4075V34.1951C108.389 32.0636 107.168 30.1205 105.247 29.1958Z" fill="#0065A9"/>
<g filter="url(#filter0_d_92_800)">
<path d="M105.247 98.8043L86.9551 107.612C84.8378 108.631 82.3074 108.201 80.6458 106.539L20.7639 51.9413C19.1533 50.4727 19.1551 47.9369 20.7679 46.4707L25.6593 42.024C26.9778 40.8253 28.9636 40.7371 30.3832 41.8141L102.495 96.5194C104.914 98.3547 108.389 96.6292 108.389 93.5927V93.8051C108.389 95.9365 107.168 97.8796 105.247 98.8043Z" fill="#007ACC"/>
</g>
<g filter="url(#filter1_d_92_800)">
<path d="M86.9561 107.613C84.8382 108.632 82.3078 108.201 80.646 106.539C82.6936 108.587 86.1946 107.137 86.1946 104.241V23.7591C86.1946 20.8634 82.6936 19.4132 80.646 21.4608C82.3078 19.7989 84.8382 19.3683 86.9561 20.3869L105.245 29.1821C107.167 30.1063 108.389 32.0501 108.389 34.1825V93.818C108.389 95.9504 107.167 97.8942 105.245 98.8184L86.9561 107.613Z" fill="#1F9CF0"/>
</g>
<g style="mix-blend-mode:overlay" opacity="0.25">
<path fill-rule="evenodd" clip-rule="evenodd" d="M82.5111 107.783C83.9093 108.327 85.5038 108.292 86.915 107.613L105.193 98.8184C107.113 97.8943 108.335 95.9505 108.335 93.8179V34.1826C108.335 32.05 107.114 30.1062 105.193 29.1821L86.915 20.3869C85.0629 19.4956 82.8952 19.7139 81.2696 20.8957C81.0375 21.0645 80.8162 21.253 80.6087 21.4608L45.6179 53.3835L30.3766 41.8142C28.9579 40.7371 26.9733 40.8254 25.6556 42.024L20.7672 46.4707C19.1554 47.937 19.1535 50.4727 20.7632 51.9413L33.9809 64.0001L20.7632 76.0589C19.1535 77.5275 19.1554 80.0633 20.7672 81.5294L25.6556 85.9761C26.9733 87.1748 28.9579 87.263 30.3766 86.1861L45.6179 74.6167L80.6087 106.539C81.1622 107.093 81.8121 107.51 82.5111 107.783ZM86.1539 43.8466L59.604 64.0001L86.1539 84.1537V43.8466Z" fill="url(#paint0_linear_92_800)" style="mix-blend-mode:overlay"/>
</g>
<defs>
<filter id="filter0_d_92_800" x="11.2238" y="32.7287" width="105.498" height="83.7641" filterUnits="userSpaceOnUse" color-interpolation-filters="sRGB">
<feFlood flood-opacity="0" result="BackgroundImageFix"/>
<feColorMatrix in="SourceAlpha" type="matrix" values="0 0 0 0 0 0 0 0 0 0 0 0 0 0 0 0 0 0 127 0" result="hardAlpha"/>
<feOffset/>
<feGaussianBlur stdDeviation="4.16667"/>
<feColorMatrix type="matrix" values="0 0 0 0 0 0 0 0 0 0 0 0 0 0 0 0 0 0 0.25 0"/>
<feBlend mode="overlay" in2="BackgroundImageFix" result="effect1_dropShadow_92_800"/>
<feBlend mode="normal" in="SourceGraphic" in2="effect1_dropShadow_92_800" result="shape"/>
</filter>
<filter id="filter1_d_92_800" x="72.3127" y="11.5067" width="44.4098" height="104.987" filterUnits="userSpaceOnUse" color-interpolation-filters="sRGB">
<feFlood flood-opacity="0" result="BackgroundImageFix"/>
<feColorMatrix in="SourceAlpha" type="matrix" values="0 0 0 0 0 0 0 0 0 0 0 0 0 0 0 0 0 0 127 0" result="hardAlpha"/>
<feOffset/>
<feGaussianBlur stdDeviation="4.16667"/>
<feColorMatrix type="matrix" values="0 0 0 0 0 0 0 0 0 0 0 0 0 0 0 0 0 0 0.25 0"/>
<feBlend mode="overlay" in2="BackgroundImageFix" result="effect1_dropShadow_92_800"/>
<feBlend mode="normal" in="SourceGraphic" in2="effect1_dropShadow_92_800" result="shape"/>
</filter>
<linearGradient id="paint0_linear_92_800" x1="63.946" y1="19.8401" x2="63.946" y2="108.16" gradientUnits="userSpaceOnUse">
<stop stop-color="white"/>
<stop offset="1" stop-color="white" stop-opacity="0"/>
</linearGradient>
</defs>
</svg>
