<svg width="128" height="128" viewBox="0 0 128 128" fill="none" xmlns="http://www.w3.org/2000/svg">
<g clip-path="url(#clip0_92_762)">
<path d="M22.6667 1.0317e-05H105.333C108.311 -0.00286788 111.259 0.596491 114.011 1.76379C116.762 2.93108 119.262 4.6434 121.367 6.80273C123.473 8.96207 125.142 11.526 126.28 14.3479C127.418 17.1698 128.003 20.1941 128 23.2479V104.752C128.003 107.806 127.418 110.83 126.28 113.652C125.142 116.474 123.473 119.038 121.367 121.197C119.262 123.357 116.762 125.069 114.011 126.236C111.259 127.404 108.311 128.003 105.333 128H22.6667C19.6893 128.003 16.7405 127.404 13.9892 126.236C11.2379 125.069 8.73802 123.357 6.63266 121.197C4.52731 119.038 2.8578 116.474 1.71969 113.652C0.581579 110.83 -0.00279618 107.806 1.00591e-05 104.752V23.2479C-0.00279618 20.1941 0.581579 17.1698 1.71969 14.3479C2.8578 11.526 4.52731 8.96207 6.63266 6.80273C8.73802 4.6434 11.2379 2.93108 13.9892 1.76379C16.7405 0.596491 19.6893 -0.00286788 22.6667 1.0317e-05V1.0317e-05Z" fill="#F7DF1E"/>
<path d="M86.2008 100.155C88.7791 104.365 92.1335 107.459 98.0662 107.459C103.05 107.459 106.234 104.968 106.234 101.526C106.234 97.4019 102.963 95.9411 97.477 93.5416L94.47 92.2514C85.7904 88.5536 80.0243 83.9213 80.0243 74.1282C80.0243 65.1073 86.8977 58.24 97.6395 58.24C105.287 58.24 110.785 60.9016 114.747 67.8705L105.38 73.8844C103.318 70.1867 101.094 68.7299 97.6395 68.7299C94.1165 68.7299 91.8836 70.9648 91.8836 73.8844C91.8836 77.4928 94.1185 78.9536 99.2792 81.1886L102.286 82.4767C112.506 86.8592 118.276 91.327 118.276 101.372C118.276 112.201 109.769 118.134 98.3446 118.134C87.174 118.134 79.9573 112.811 76.4261 105.834L86.2008 100.155ZM43.7109 101.197C45.6004 104.55 47.3193 107.384 51.4519 107.384C55.4036 107.384 57.8966 105.838 57.8966 99.8258V58.9267H69.9245V99.9883C69.9245 112.443 62.6224 118.111 51.9639 118.111C42.3334 118.111 36.7562 113.128 33.9199 107.125L43.7109 101.197Z" fill="black"/>
</g>
<defs>
<clipPath id="clip0_92_762">
<rect width="128" height="128" fill="white"/>
</clipPath>
</defs>
</svg>
