<svg width="128" height="128" viewBox="0 0 128 128" fill="none" xmlns="http://www.w3.org/2000/svg">
<g clip-path="url(#clip0_92_765)">
<path d="M22.6667 1.0317e-05H105.333C108.311 -0.00286788 111.259 0.596491 114.011 1.76379C116.762 2.93108 119.262 4.6434 121.367 6.80273C123.473 8.96207 125.142 11.526 126.28 14.3479C127.418 17.1698 128.003 20.1941 128 23.2479V104.752C128.003 107.806 127.418 110.83 126.28 113.652C125.142 116.474 123.473 119.038 121.367 121.197C119.262 123.357 116.762 125.069 114.011 126.236C111.259 127.404 108.311 128.003 105.333 128H22.6667C19.6893 128.003 16.7405 127.404 13.9892 126.236C11.2379 125.069 8.73802 123.357 6.63266 121.197C4.52731 119.038 2.8578 116.474 1.71969 113.652C0.581579 110.83 -0.00279618 107.806 1.00591e-05 104.752V23.2479C-0.00279618 20.1941 0.581579 17.1698 1.71969 14.3479C2.8578 11.526 4.52731 8.96207 6.63266 6.80273C8.73802 4.6434 11.2379 2.93108 13.9892 1.76379C16.7405 0.596491 19.6893 -0.00286788 22.6667 1.0317e-05V1.0317e-05Z" fill="#F0F0F0"/>
<path d="M99.2517 33.6375L92.8286 105.593L63.9565 113.597L35.164 105.604L28.7476 33.6375H99.2517Z" fill="#E44D26"/>
<path d="M64 107.478L87.3301 101.01L92.8188 39.5215H64V107.478Z" fill="#F16529"/>
<path d="M51.5137 57.1745H64V48.3481H41.8677L42.0788 50.7161L44.2483 75.0392H64V66.2128H52.3204L51.5137 57.1745V57.1745ZM53.503 79.4525H44.6427L45.8792 93.3112L63.9594 98.33L64 98.319V89.1358L63.9613 89.1461L54.1315 86.4918L53.503 79.4525V79.4525Z" fill="#EBEBEB"/>
<path d="M35.3071 14.0801H39.7926V18.5116H43.8958V14.0801H48.3815V27.4999H43.8961V23.0062H39.7929V27.4999H35.3074V14.0801H35.3071ZM54.2798 18.5304H50.3316V14.0801H62.7167V18.5304H58.766V27.4999H54.2806V18.5304H54.2803H54.2798ZM64.6822 14.0801H69.3592L72.2362 18.7955L75.1104 14.0801H79.7893V27.4999H75.3221V20.8483L72.2362 25.6198H72.1588L69.071 20.8483V27.4999H64.6822V14.0801ZM82.0215 14.0801H86.5084V23.0642H92.8162V27.4999H82.0213V14.0801H82.0215Z" fill="black"/>
<path d="M63.9695 75.0392H74.8382L73.8135 86.4863L63.9692 89.1433V98.3259L82.0639 93.3112L82.1965 91.8199L84.2709 68.5829L84.4862 66.2128H63.9695V75.0392ZM63.9695 57.1529V57.1745H85.2893L85.4662 55.1907L85.8686 50.7161L86.0795 48.3481H63.9695V57.1532V57.1529Z" fill="white"/>
</g>
<defs>
<clipPath id="clip0_92_765">
<rect width="128" height="128" fill="white"/>
</clipPath>
</defs>
</svg>
