<?xml version="1.0" encoding="UTF-8"?>
<svg id="Layer_1" xmlns="http://www.w3.org/2000/svg" version="1.1" viewBox="0 0 32 32">
  <!-- Generator: Adobe Illustrator 29.8.2, SVG Export Plug-In . SVG Version: 2.1.1 Build 3)  -->
  <defs>
    <style>
      .st0 {
        fill: #fff;
      }

      .st1 {
        fill: #e59145;
      }

      .st2 {
        fill: #2b2f2f;
      }
    </style>
  </defs>
  <rect class="st0" x=".2" y=".2" width="31.6" height="31.6" rx="6.65" ry="6.65"/>
  <g>
    <path class="st2" d="M12.19,11.99s-.19-.73-.93-.81c-.74-.09-2.57,0-2.57,0v6.25h1.27v-2.6h1.22s.98-.09,1.01-1.12,0-1.72,0-1.72ZM10.93,13.57c0,.25-.23.34-.23.34h-.74v-1.95h.63c.29,0,.34.4.34.4v1.2Z"/>
    <path class="st2" d="M14.89,11.12h-1.59l-1.1,6.32h1.19l.18-1.19h1.06l.18,1.19h1.19l-1.1-6.32ZM13.7,15.27l.39-2.42.41,2.42h-.8Z"/>
    <path class="st2" d="M20,13.47v-1.3s-.21-1.11-1.79-1.09c-1.57.03-1.73.95-1.73.95v4.49s.16.92,1.73.95,1.79-1.09,1.79-1.09v-1.52h-1.27v1.39c-.57.65-1.01-.01-1.01-.01l.04-1.96-.04-1.96s.44-.66,1.01-.01v1.17h1.27Z"/>
    <polygon class="st2" points="23.78 12.08 23.78 11.13 20.73 11.13 20.73 14.18 20.73 17.34 23.78 17.34 23.78 16.5 21.95 16.5 21.95 14.7 23.41 14.7 23.41 14.18 23.41 13.67 21.95 13.67 21.95 12.08 23.78 12.08"/>
    <path class="st2" d="M9.92,21.8v.36h.53v-2.43l-1.14.02v.57h.39v1.02s-.33.45-.68.02v-2.5s.3-.39.61,0v.53h.77v-.7s-.05-.56-1.01-.58-1.15.61-1.15.61v2.84s.21.67.8.63.78-.33.78-.33"/>
    <path class="st2" d="M13.19,19.51v-.67c0-.35-.35-.63-.77-.63h-1.44v3.96h.8v-1.67h.38c.11,0,.21.07.21.16v1.5h.83v-1.62c0-.21-.16-.4-.39-.47.23-.11.39-.32.39-.56ZM12.35,19.64c0,.09-.09.16-.19.16h-.4v-1.09h.4c.11,0,.19.07.19.16v.78Z"/>
    <path class="st2" d="M14.85,18.18h-.23c-.57,0-1.04.38-1.04.85v2.25c0,.47.46.85,1.04.85h.23c.57,0,1.04-.38,1.04-.85v-2.25c0-.47-.46-.85-1.04-.85ZM15.07,21.33c0,.16-.16.29-.35.29s-.35-.13-.35-.29v-2.29c0-.16.16-.29.35-.29s.35.13.35.29v2.29Z"/>
    <path class="st2" d="M17.76,18.18v3.18c0,.11-.11.2-.24.2h-.16c-.13,0-.24-.09-.24-.2v-3.18h-.83v3.13c0,.48.48.87,1.06.87h.18c.59,0,1.06-.39,1.06-.87v-3.13h-.83Z"/>
    <polygon class="st2" points="20.6 18.18 20.6 20.29 19.81 18.18 19.02 18.18 19.02 22.14 19.8 22.14 19.8 19.82 20.6 22.14 21.32 22.14 21.32 18.18 20.6 18.18"/>
    <path class="st2" d="M23.1,18.18h-1.28v3.96h1.28c.54,0,.98-.36.98-.8v-2.36c0-.44-.44-.8-.98-.8ZM23.23,21.3c0,.13-.13.23-.28.23h-.31v-2.8h.31c.15,0,.28.1.28.23v2.35Z"/>
    <path class="st1" d="M25.44,24.5c.23-.37.83-1.29,1.36-2.57.27-.63.51-1.35.68-2.11.18-.76.27-1.56.26-2.34,0-.39-.03-.76-.07-1.13-.03-.18-.05-.36-.08-.53-.03-.17-.06-.34-.1-.5-.14-.65-.32-1.21-.49-1.65-.08-.22-.17-.41-.24-.57-.07-.16-.14-.28-.18-.36-.09-.17-.12-.19-.07-.03.02.06.05.14.08.23.02.04.04.09.05.14.02.05.04.1.05.15.04.11.08.22.13.34.04.12.08.25.12.38.02.06.04.13.06.2.02.07.04.13.06.2.04.13.07.27.11.4.03.13.06.26.09.38.01.06.03.12.04.18,0,.06.02.12.03.17.08.44.1.74.07.71-.02-.01-.04-.11-.09-.31-.06-.2-.13-.5-.27-.91l-.04-.19-.05-.19-.1-.38-.12-.37c-.02-.06-.04-.12-.06-.18l-.07-.18c-.17-.49-.4-.95-.63-1.4-.12-.22-.24-.44-.38-.66-.13-.22-.28-.42-.42-.63-.3-.4-.61-.79-.96-1.15-.17-.18-.35-.35-.53-.52l-.28-.24-.14-.12-.14-.11c-.38-.31-.79-.58-1.2-.84-.84-.5-1.72-.9-2.64-1.16-.46-.14-.93-.23-1.4-.31-.24-.03-.47-.07-.71-.08l-.35-.03h-.36c-.95-.04-1.9.07-2.81.28-.12.02-.23.06-.34.09-.11.03-.23.06-.34.1-.22.08-.45.14-.67.23-.44.16-.87.36-1.29.58-.21.12-.41.23-.61.35-.2.12-.4.26-.59.39-.38.28-.76.57-1.1.9-1.05.99-1.9,2.18-2.47,3.48-.58,1.3-.87,2.72-.88,4.13,0,.35.03.7.05,1.06,0,.09.02.17.03.26l.04.26c.03.17.05.35.09.52l.12.51c.02.09.05.17.07.25l.08.25.08.25c.02.08.06.16.09.24l.2.48c.58,1.25,1.41,2.39,2.45,3.25.26.23.95.89,1.6,1.43.08.07.16.14.23.2.08.06.15.12.23.18.14.12.27.23.36.33.2.18.27.33.13.38.26.49.28.81.05.97-.11.08-.29.13-.52.13-.12,0-.25,0-.39-.02-.14-.02-.29-.06-.46-.1-.66-.16-1.48-.54-2.32-1.13-.84-.59-1.7-1.42-2.42-2.42-.72-1-1.3-2.18-1.66-3.39-.37-1.21-.51-2.44-.52-3.55,0-1.11.16-2.09.33-2.86.02-.1.04-.19.06-.28.02-.09.05-.17.07-.26.05-.16.08-.32.12-.45.08-.27.14-.48.18-.62.58-1.57,1.47-3.03,2.6-4.27,1.13-1.24,2.5-2.27,4.03-2.99,3.05-1.47,6.71-1.68,9.96-.52,1.62.57,3.13,1.48,4.41,2.64,1.28,1.16,2.34,2.59,3.07,4.17.74,1.58,1.15,3.32,1.2,5.06v.33c.01.11,0,.23,0,.34v.34c-.02.11-.02.23-.04.34l-.08.67c-.04.22-.09.44-.13.66-.2.87-.48,1.7-.83,2.48.42-.99.71-2.04.84-3.14l.07-.83v-.84c-.01-.53-.05-1.07-.11-1.6,0,.11.02.22.02.33,0,.11,0,.22.01.33,0,.11.01.22.01.33,0,.11,0,.22,0,.34,0,.11,0,.22,0,.34,0,.12-.01.24-.02.36,0,.12-.01.24-.02.36,0,.12-.03.24-.04.36-.12.96-.34,1.91-.67,2.81-.33.9-.75,1.76-1.24,2.56-.49.8-1.04,1.54-1.66,2.18.24-.39.27-.47.17-.36-.1.11-.33.41-.63.76-.07.09-.15.18-.23.27-.08.09-.17.18-.25.28-.09.09-.17.19-.26.28-.09.09-.18.17-.26.26-.09.08-.17.16-.25.24-.08.07-.16.14-.23.2-.14.12-.26.21-.34.26.22-.64.71-1.15,1.23-1.7.13-.13.26-.27.39-.41.13-.14.26-.28.38-.42.12-.14.24-.29.34-.44.1-.15.2-.3.28-.45Z"/>
    <path class="st1" d="M25.24,25.32s0,.02,0,0c0,0,0,0,0,0Z"/>
  </g>
</svg>