<svg width="18" height="19" viewBox="0 0 18 19" fill="none" xmlns="http://www.w3.org/2000/svg">
<path fill-rule="evenodd" clip-rule="evenodd" d="M4.72605 11.3019C4.84388 11.3134 5.00101 11.3301 5.1902 11.3535C5.59039 11.4029 6.13311 11.4821 6.75 11.6042V12.4688C6.75 12.9606 7.12776 13.3594 7.59375 13.3594H8.71875C9.18474 13.3594 9.5625 12.9606 9.5625 12.4688V12.3961C10.195 12.6406 10.8074 12.9358 11.3474 13.2912C11.4698 13.5097 11.6952 13.6562 11.9531 13.6562C12.3414 13.6562 12.6562 13.324 12.6562 12.9141V6.08594C12.6562 5.67604 12.3414 5.34375 11.9531 5.34375C11.693 5.34375 11.4658 5.49289 11.3442 5.71458C10.0586 6.73614 8.35687 7.31469 6.95395 7.63646C6.25281 7.79727 5.63366 7.89233 5.1902 7.94713C5.00113 7.97049 4.84425 7.98651 4.72684 7.99718C4.60622 7.66093 4.29831 7.42188 3.9375 7.42188H3.375C2.90901 7.42188 2.53125 7.82062 2.53125 8.3125V10.9844C2.53125 11.4763 2.90901 11.875 3.375 11.875H3.9375C4.29753 11.875 4.60488 11.637 4.72605 11.3019ZM11.25 6.50802C9.94018 7.40613 8.36016 7.92154 7.07339 8.21667C6.3507 8.38242 5.71302 8.48033 5.2556 8.53685C5.06364 8.56058 4.90319 8.57704 4.78125 8.58818V10.711C4.90287 10.7229 5.06335 10.74 5.2556 10.7637C5.71164 10.8201 6.34753 10.914 7.06817 11.0642C8.35716 11.333 9.94054 11.7867 11.25 12.5438V6.50802ZM7.3125 12.4688V11.7236C7.85384 11.8465 8.42877 12.0008 9 12.1931V12.4688C9 12.6327 8.87408 12.7656 8.71875 12.7656H7.59375C7.43842 12.7656 7.3125 12.6327 7.3125 12.4688ZM4.21875 10.9844V8.3125C4.21875 8.14854 4.09283 8.01562 3.9375 8.01562H3.375C3.21967 8.01562 3.09375 8.14854 3.09375 8.3125V10.9844C3.09375 11.1483 3.21967 11.2812 3.375 11.2812H3.9375C4.09283 11.2812 4.21875 11.1483 4.21875 10.9844ZM11.8125 12.9141C11.8125 12.996 11.8755 13.0625 11.9531 13.0625C12.0308 13.0625 12.0938 12.996 12.0938 12.9141V6.08594C12.0938 6.00396 12.0308 5.9375 11.9531 5.9375C11.8755 5.9375 11.8125 6.00396 11.8125 6.08594V12.9141Z" fill="url(#paint0_linear_46_2514)"/>
<path d="M13.7812 9.20312C13.6259 9.20312 13.5 9.33604 13.5 9.5C13.5 9.66396 13.6259 9.79688 13.7812 9.79688H15.6094C15.7647 9.79688 15.8906 9.66396 15.8906 9.5C15.8906 9.33604 15.7647 9.20312 15.6094 9.20312H13.7812Z" fill="url(#paint1_linear_46_2514)"/>
<path d="M15.565 7.08201C15.6122 7.23823 15.5304 7.40523 15.3824 7.45502L13.8979 7.95446C13.7499 8.00425 13.5916 7.91797 13.5445 7.76175C13.4973 7.60553 13.5791 7.43853 13.727 7.38875L15.2116 6.88931C15.3596 6.83952 15.5178 6.92579 15.565 7.08201Z" fill="url(#paint2_linear_46_2514)"/>
<path d="M15.3824 11.545C15.5304 11.5948 15.6122 11.7618 15.565 11.918C15.5178 12.0742 15.3596 12.1605 15.2116 12.1107L13.727 11.6113C13.5791 11.5615 13.4973 11.3945 13.5445 11.2382C13.5916 11.082 13.7499 10.9958 13.8979 11.0455L15.3824 11.545Z" fill="url(#paint3_linear_46_2514)"/>
<defs>
<linearGradient id="paint0_linear_46_2514" x1="2.5792" y1="5.31249" x2="10.0365" y2="17.2974" gradientUnits="userSpaceOnUse">
<stop stop-color="#E167FF"/>
<stop offset="1" stop-color="#0094FF"/>
</linearGradient>
<linearGradient id="paint1_linear_46_2514" x1="2.5792" y1="5.31249" x2="10.0365" y2="17.2974" gradientUnits="userSpaceOnUse">
<stop stop-color="#E167FF"/>
<stop offset="1" stop-color="#0094FF"/>
</linearGradient>
<linearGradient id="paint2_linear_46_2514" x1="2.5792" y1="5.31249" x2="10.0365" y2="17.2974" gradientUnits="userSpaceOnUse">
<stop stop-color="#E167FF"/>
<stop offset="1" stop-color="#0094FF"/>
</linearGradient>
<linearGradient id="paint3_linear_46_2514" x1="2.5792" y1="5.31249" x2="10.0365" y2="17.2974" gradientUnits="userSpaceOnUse">
<stop stop-color="#E167FF"/>
<stop offset="1" stop-color="#0094FF"/>
</linearGradient>
</defs>
</svg>
