<svg width="18" height="19" viewBox="0 0 18 19" fill="none" xmlns="http://www.w3.org/2000/svg">
<path d="M14.0625 13.3594C14.0625 13.1954 13.9366 13.0625 13.7812 13.0625C13.6259 13.0625 13.5 13.1954 13.5 13.3594C13.5 13.5233 13.3741 13.6563 13.2188 13.6563H13.0781C12.9228 13.6563 12.7969 13.7892 12.7969 13.9531C12.7969 14.1171 12.9228 14.25 13.0781 14.25H13.2188C13.6847 14.25 14.0625 13.8513 14.0625 13.3594Z" fill="url(#paint0_linear_46_2515)"/>
<path d="M4.21875 13.0625C4.06342 13.0625 3.9375 13.1954 3.9375 13.3594C3.9375 13.8513 4.31526 14.25 4.78125 14.25H4.92188C5.07721 14.25 5.20312 14.1171 5.20312 13.9531C5.20312 13.7892 5.07721 13.6563 4.92188 13.6563H4.78125C4.62592 13.6563 4.5 13.5233 4.5 13.3594C4.5 13.1954 4.37408 13.0625 4.21875 13.0625Z" fill="url(#paint1_linear_46_2515)"/>
<path d="M8.57812 10.2422C8.4228 10.2422 8.29688 10.3751 8.29688 10.5391C8.29688 10.703 8.4228 10.8359 8.57812 10.8359H9.42188C9.5772 10.8359 9.70312 10.703 9.70312 10.5391C9.70312 10.3751 9.5772 10.2422 9.42188 10.2422H8.57812Z" fill="url(#paint2_linear_46_2515)"/>
<path fill-rule="evenodd" clip-rule="evenodd" d="M11.25 6.23438V6.82813H14.0625C14.5285 6.82813 14.9062 7.22687 14.9062 7.71875V13.3594C14.9062 14.3431 14.1507 15.1406 13.2188 15.1406H4.78125C3.84927 15.1406 3.09375 14.3431 3.09375 13.3594V7.71875C3.09375 7.22687 3.47151 6.82813 3.9375 6.82813H6.75L6.75 6.23437C6.75 5.7425 7.12776 5.34375 7.59375 5.34375H10.4062C10.8722 5.34375 11.25 5.7425 11.25 6.23438ZM3.65625 13.3594V9.77141L4.41762 10.5751C4.57586 10.7421 4.79047 10.8359 5.01425 10.8359H7.3125V10.9844C7.3125 11.4763 7.69026 11.875 8.15625 11.875H9.84375C10.3097 11.875 10.6875 11.4763 10.6875 10.9844V10.8359H12.9858C13.2095 10.8359 13.4241 10.7421 13.5824 10.5751L14.3438 9.77141V13.3594C14.3438 14.0152 13.8401 14.5469 13.2188 14.5469H4.78125C4.15993 14.5469 3.65625 14.0152 3.65625 13.3594ZM7.875 10.9844V10.0938C7.875 9.92979 8.00092 9.79688 8.15625 9.79688H9.84375C9.99908 9.79688 10.125 9.92979 10.125 10.0938V10.9844C10.125 11.1483 9.99908 11.2813 9.84375 11.2813H8.15625C8.00092 11.2813 7.875 11.1483 7.875 10.9844ZM10.6875 10.0938V10.2422H12.9858C13.0603 10.2422 13.1319 10.2109 13.1846 10.1552L14.3438 8.93172V7.71875C14.3438 7.55479 14.2178 7.42188 14.0625 7.42188H3.9375C3.78217 7.42188 3.65625 7.55479 3.65625 7.71875V8.93172L4.81537 10.1552C4.86812 10.2109 4.93965 10.2422 5.01425 10.2422H7.3125V10.0938C7.3125 9.60187 7.69026 9.20313 8.15625 9.20313H9.84375C10.3097 9.20313 10.6875 9.60187 10.6875 10.0938ZM7.3125 6.82813L7.3125 6.23437C7.3125 6.07042 7.43842 5.9375 7.59375 5.9375L10.4062 5.9375C10.5616 5.9375 10.6875 6.07042 10.6875 6.23438V6.82813L7.3125 6.82813Z" fill="url(#paint3_linear_46_2515)"/>
<defs>
<linearGradient id="paint0_linear_46_2515" x1="3.13615" y1="5.30691" x2="12.764" y2="16.9156" gradientUnits="userSpaceOnUse">
<stop stop-color="#E167FF"/>
<stop offset="1" stop-color="#0094FF"/>
</linearGradient>
<linearGradient id="paint1_linear_46_2515" x1="3.13615" y1="5.30691" x2="12.764" y2="16.9156" gradientUnits="userSpaceOnUse">
<stop stop-color="#E167FF"/>
<stop offset="1" stop-color="#0094FF"/>
</linearGradient>
<linearGradient id="paint2_linear_46_2515" x1="3.13615" y1="5.30691" x2="12.764" y2="16.9156" gradientUnits="userSpaceOnUse">
<stop stop-color="#E167FF"/>
<stop offset="1" stop-color="#0094FF"/>
</linearGradient>
<linearGradient id="paint3_linear_46_2515" x1="3.13615" y1="5.30691" x2="12.764" y2="16.9156" gradientUnits="userSpaceOnUse">
<stop stop-color="#E167FF"/>
<stop offset="1" stop-color="#0094FF"/>
</linearGradient>
</defs>
</svg>
