<svg width="18" height="18" viewBox="0 0 18 18" fill="none" xmlns="http://www.w3.org/2000/svg">
<path d="M3.72609 5.42398C3.7704 5.2751 3.68563 5.11849 3.53675 5.07419C3.38788 5.02988 3.23127 5.11465 3.18696 5.26352C3.12625 5.46752 3.09375 5.68334 3.09375 5.90625C3.09375 6.12917 3.12625 6.34499 3.18696 6.54898C3.23127 6.69785 3.38788 6.78262 3.53675 6.73832C3.68563 6.69401 3.7704 6.5374 3.72609 6.38852C3.68072 6.23605 3.65625 6.07426 3.65625 5.90625C3.65625 5.73824 3.68072 5.57645 3.72609 5.42398Z" fill="url(#paint0_linear_46_2518)"/>
<path d="M7.50054 5.26352C7.45623 5.11465 7.29962 5.02988 7.15074 5.07419C7.00187 5.11849 6.9171 5.2751 6.96141 5.42398C7.00678 5.57645 7.03125 5.73824 7.03125 5.90625C7.03125 6.07426 7.00678 6.23605 6.96141 6.38852C6.9171 6.5374 7.00187 6.69401 7.15074 6.73832C7.29962 6.78262 7.45623 6.69785 7.50054 6.54898C7.56125 6.34499 7.59375 6.12917 7.59375 5.90625C7.59375 5.68334 7.56125 5.46752 7.50054 5.26352Z" fill="url(#paint1_linear_46_2518)"/>
<path d="M5.34375 3.65625C5.49908 3.65625 5.625 3.78217 5.625 3.9375V3.96106C5.9819 4.03254 6.28251 4.26143 6.43915 4.5753C6.50851 4.71429 6.45207 4.88318 6.31309 4.95254C6.17411 5.02191 6.00521 4.96547 5.93585 4.82648C5.84185 4.63812 5.63487 4.5 5.3864 4.5C5.03895 4.5 4.78125 4.76475 4.78125 5.0625C4.78125 5.36025 5.03895 5.625 5.3864 5.625C5.41746 5.625 5.44734 5.63003 5.47527 5.63933C6.02651 5.7241 6.46875 6.17581 6.46875 6.75C6.46875 7.27115 6.10445 7.69139 5.625 7.82797V7.875C5.625 8.03033 5.49908 8.15625 5.34375 8.15625C5.18842 8.15625 5.0625 8.03033 5.0625 7.875V7.85457C4.7204 7.79167 4.42706 7.58774 4.25797 7.30205C4.17885 7.16838 4.22307 6.99588 4.35674 6.91677C4.49041 6.83765 4.66291 6.88187 4.74203 7.01554C4.84391 7.18766 5.046 7.3125 5.2875 7.3125C5.6466 7.3125 5.90625 7.04384 5.90625 6.75C5.90625 6.45616 5.6466 6.1875 5.2875 6.1875C5.25583 6.1875 5.22539 6.18227 5.19698 6.17262C4.65121 6.08612 4.21875 5.63218 4.21875 5.0625C4.21875 4.5405 4.58184 4.11568 5.0625 3.98168V3.9375C5.0625 3.78217 5.18842 3.65625 5.34375 3.65625Z" fill="url(#paint2_linear_46_2518)"/>
<path fill-rule="evenodd" clip-rule="evenodd" d="M2.25 5.90625C2.25 4.19762 3.63512 2.8125 5.34375 2.8125C7.05238 2.8125 8.4375 4.19762 8.4375 5.90625C8.4375 7.61488 7.05238 9 5.34375 9C3.63512 9 2.25 7.61488 2.25 5.90625ZM5.34375 3.375C3.94578 3.375 2.8125 4.50828 2.8125 5.90625C2.8125 7.30422 3.94578 8.4375 5.34375 8.4375C6.74172 8.4375 7.875 7.30422 7.875 5.90625C7.875 4.50828 6.74172 3.375 5.34375 3.375Z" fill="url(#paint3_linear_46_2518)"/>
<path fill-rule="evenodd" clip-rule="evenodd" d="M8.85938 5.0625C8.85938 4.90717 8.9853 4.78125 9.14062 4.78125H14.9062C15.3722 4.78125 15.75 5.15901 15.75 5.625V12.9375C15.75 13.4035 15.3722 13.7812 14.9062 13.7812H10.6875V14.625H11.5312C11.6866 14.625 11.8125 14.7509 11.8125 14.9062C11.8125 15.0616 11.6866 15.1875 11.5312 15.1875H7.59375C7.43842 15.1875 7.3125 15.0616 7.3125 14.9062C7.3125 14.7509 7.43842 14.625 7.59375 14.625H8.4375V13.7812H4.21875C3.75276 13.7812 3.375 13.4035 3.375 12.9375V9.42188C3.375 9.26655 3.50092 9.14062 3.65625 9.14062C3.81158 9.14062 3.9375 9.26655 3.9375 9.42188V11.8125H15.1875V5.625C15.1875 5.46967 15.0616 5.34375 14.9062 5.34375H9.14062C8.9853 5.34375 8.85938 5.21783 8.85938 5.0625ZM10.125 13.7812V14.625H9V13.7812H10.125ZM14.9062 13.2188C15.0616 13.2188 15.1875 13.0928 15.1875 12.9375V12.375H3.9375V12.9375C3.9375 13.0928 4.06342 13.2188 4.21875 13.2188H14.9062Z" fill="url(#paint4_linear_46_2518)"/>
<path d="M13.2188 7.17188C13.2188 7.01654 13.0928 6.89062 12.9375 6.89062C12.7822 6.89062 12.6562 7.01654 12.6562 7.17188V10.2656H11.5312V8.01562C11.5312 7.8603 11.4053 7.73438 11.25 7.73438C11.0947 7.73438 10.9688 7.8603 10.9688 8.01562V10.2656H9.98438V8.85938C9.98438 8.70405 9.85845 8.57812 9.70312 8.57812C9.5478 8.57812 9.42188 8.70405 9.42188 8.85938V10.2656H8.29688V9.42188C8.29688 9.26655 8.17095 9.14062 8.01562 9.14062C7.8603 9.14062 7.73438 9.26655 7.73438 9.42188V10.2656H6.89062V9.84375C6.89062 9.68842 6.7647 9.5625 6.60938 9.5625C6.45405 9.5625 6.32812 9.68842 6.32812 9.84375V10.2656H5.34375C5.18842 10.2656 5.0625 10.3915 5.0625 10.5469C5.0625 10.7022 5.18842 10.8281 5.34375 10.8281H14.0625C14.2178 10.8281 14.3438 10.7022 14.3438 10.5469C14.3438 10.3915 14.2178 10.2656 14.0625 10.2656H13.2188V7.17188Z" fill="url(#paint5_linear_46_2518)"/>
<defs>
<linearGradient id="paint0_linear_46_2518" x1="2.29845" y1="2.76596" x2="14.6268" y2="16.215" gradientUnits="userSpaceOnUse">
<stop stop-color="#E167FF"/>
<stop offset="1" stop-color="#0094FF"/>
</linearGradient>
<linearGradient id="paint1_linear_46_2518" x1="2.29845" y1="2.76596" x2="14.6268" y2="16.215" gradientUnits="userSpaceOnUse">
<stop stop-color="#E167FF"/>
<stop offset="1" stop-color="#0094FF"/>
</linearGradient>
<linearGradient id="paint2_linear_46_2518" x1="2.29845" y1="2.76596" x2="14.6268" y2="16.215" gradientUnits="userSpaceOnUse">
<stop stop-color="#E167FF"/>
<stop offset="1" stop-color="#0094FF"/>
</linearGradient>
<linearGradient id="paint3_linear_46_2518" x1="2.29845" y1="2.76596" x2="14.6268" y2="16.215" gradientUnits="userSpaceOnUse">
<stop stop-color="#E167FF"/>
<stop offset="1" stop-color="#0094FF"/>
</linearGradient>
<linearGradient id="paint4_linear_46_2518" x1="2.29845" y1="2.76596" x2="14.6268" y2="16.215" gradientUnits="userSpaceOnUse">
<stop stop-color="#E167FF"/>
<stop offset="1" stop-color="#0094FF"/>
</linearGradient>
<linearGradient id="paint5_linear_46_2518" x1="2.29845" y1="2.76596" x2="14.6268" y2="16.215" gradientUnits="userSpaceOnUse">
<stop stop-color="#E167FF"/>
<stop offset="1" stop-color="#0094FF"/>
</linearGradient>
</defs>
</svg>
