<svg width="20" height="20" viewBox="0 0 20 20" fill="none" xmlns="http://www.w3.org/2000/svg">
<path d="M5.3125 5C5.3125 4.48223 5.73223 4.0625 6.25 4.0625H12.1875C12.7053 4.0625 13.125 4.48223 13.125 5V8.75C13.125 8.92259 12.9851 9.0625 12.8125 9.0625C12.6399 9.0625 12.5 8.92259 12.5 8.75V5C12.5 4.82741 12.3601 4.6875 12.1875 4.6875H6.25C6.07741 4.6875 5.9375 4.82741 5.9375 5V13.125C5.9375 13.2976 6.07741 13.4375 6.25 13.4375H8.75C8.92259 13.4375 9.0625 13.5774 9.0625 13.75C9.0625 13.9226 8.92259 14.0625 8.75 14.0625H6.25C5.73223 14.0625 5.3125 13.6428 5.3125 13.125V5Z" fill="url(#paint0_linear_46_2513)"/>
<path d="M12.0312 12.5C11.8587 12.5 11.7188 12.6399 11.7188 12.8125C11.7188 12.9851 11.8587 13.125 12.0312 13.125H12.8125C12.9851 13.125 13.125 12.9851 13.125 12.8125C13.125 12.6399 12.9851 12.5 12.8125 12.5H12.0312Z" fill="url(#paint1_linear_46_2513)"/>
<path fill-rule="evenodd" clip-rule="evenodd" d="M13.6468 10.0805C13.5121 9.84567 13.2589 9.6875 12.9688 9.6875C12.7929 9.6875 12.6306 9.74562 12.5 9.84369C12.3694 9.74562 12.2071 9.6875 12.0313 9.6875C11.9777 9.6875 11.9255 9.69288 11.875 9.70313L11.875 8.90625C11.875 8.47478 11.5252 8.125 11.0938 8.125C10.6623 8.125 10.3125 8.47478 10.3125 8.90625V11.422C10.3125 11.7004 9.9759 11.8398 9.77904 11.6429L9.62279 11.4867C9.31769 11.1816 8.82303 11.1816 8.51793 11.4867C8.21283 11.7918 8.21283 12.2864 8.51793 12.5915L10.402 14.4756C10.4335 14.5071 10.4634 14.5527 10.4908 14.6162C10.826 15.3929 11.5991 15.9375 12.5 15.9375C13.7081 15.9375 14.6875 14.9581 14.6875 13.75C14.6875 13.6883 14.6849 13.6271 14.6799 13.5666C14.6775 13.5372 14.678 13.5027 14.6806 13.4532L14.6822 13.4251C14.6845 13.3839 14.6875 13.3314 14.6875 13.2812V11.0938C14.6875 10.6623 14.3377 10.3125 13.9062 10.3125C13.8527 10.3125 13.8005 10.3179 13.75 10.3281V10.3125C13.75 10.2204 13.7102 10.1377 13.6468 10.0805ZM11.0938 8.75C11.0075 8.75 10.9375 8.81996 10.9375 8.90625V11.422C10.9375 12.2572 9.92769 12.6755 9.33709 12.0849L9.18084 11.9286C9.11982 11.8676 9.02089 11.8676 8.95987 11.9286C8.89885 11.9896 8.89885 12.0886 8.95987 12.1496L10.844 14.0337C10.9474 14.1371 11.0164 14.2569 11.0646 14.3685C11.3045 14.9244 11.8573 15.3125 12.5 15.3125C13.363 15.3125 14.0625 14.6129 14.0625 13.75C14.0625 13.7056 14.0607 13.6617 14.0571 13.6184C14.0509 13.5447 14.0536 13.4753 14.0564 13.4208C14.0572 13.4056 14.058 13.3918 14.0587 13.3791C14.0609 13.3409 14.0625 13.312 14.0625 13.2812V11.0938C14.0625 11.0075 13.9925 10.9375 13.9062 10.9375C13.8202 10.9375 13.7504 11.007 13.75 11.0929L13.75 11.0933V11.5625C13.75 11.7351 13.6101 11.875 13.4375 11.875C13.2649 11.875 13.125 11.7351 13.125 11.5625V10.4674C13.1243 10.3817 13.0546 10.3125 12.9688 10.3125C12.8825 10.3125 12.8125 10.3825 12.8125 10.4688L12.8125 10.4707V11.5625C12.8125 11.7351 12.6726 11.875 12.5 11.875C12.3274 11.875 12.1875 11.7351 12.1875 11.5625V10.4674C12.1868 10.3817 12.1171 10.3125 12.0313 10.3125C11.945 10.3125 11.875 10.3825 11.875 10.4688L11.875 10.4707V11.5625C11.875 11.7351 11.7351 11.875 11.5625 11.875C11.3899 11.875 11.25 11.7351 11.25 11.5625V10.3125L11.25 10.3106L11.25 8.90625C11.25 8.81996 11.18 8.75 11.0938 8.75Z" fill="url(#paint2_linear_46_2513)"/>
<path d="M6.875 5.46875C6.70241 5.46875 6.5625 5.60866 6.5625 5.78125C6.5625 5.95384 6.70241 6.09375 6.875 6.09375H11.4062C11.5788 6.09375 11.7188 5.95384 11.7188 5.78125C11.7188 5.60866 11.5788 5.46875 11.4062 5.46875H6.875Z" fill="url(#paint3_linear_46_2513)"/>
<path d="M6.5625 6.71875C6.5625 6.54616 6.70241 6.40625 6.875 6.40625H10.4688C10.6413 6.40625 10.7812 6.54616 10.7812 6.71875C10.7812 6.89134 10.6413 7.03125 10.4688 7.03125H6.875C6.70241 7.03125 6.5625 6.89134 6.5625 6.71875Z" fill="url(#paint4_linear_46_2513)"/>
<path d="M6.875 7.34375C6.70241 7.34375 6.5625 7.48366 6.5625 7.65625C6.5625 7.82884 6.70241 7.96875 6.875 7.96875H9.53125C9.70384 7.96875 9.84375 7.82884 9.84375 7.65625C9.84375 7.48366 9.70384 7.34375 9.53125 7.34375H6.875Z" fill="url(#paint5_linear_46_2513)"/>
<path d="M6.5625 8.59375C6.5625 8.42116 6.70241 8.28125 6.875 8.28125H9.21875C9.39134 8.28125 9.53125 8.42116 9.53125 8.59375C9.53125 8.76634 9.39134 8.90625 9.21875 8.90625H6.875C6.70241 8.90625 6.5625 8.76634 6.5625 8.59375Z" fill="url(#paint6_linear_46_2513)"/>
<path d="M6.875 9.21875C6.70241 9.21875 6.5625 9.35866 6.5625 9.53125C6.5625 9.70384 6.70241 9.84375 6.875 9.84375H9.21875C9.39134 9.84375 9.53125 9.70384 9.53125 9.53125C9.53125 9.35866 9.39134 9.21875 9.21875 9.21875H6.875Z" fill="url(#paint7_linear_46_2513)"/>
<path d="M6.5625 10.4688C6.5625 10.2962 6.70241 10.1562 6.875 10.1562H7.96875C8.14134 10.1562 8.28125 10.2962 8.28125 10.4688C8.28125 10.6413 8.14134 10.7812 7.96875 10.7812H6.875C6.70241 10.7812 6.5625 10.6413 6.5625 10.4688Z" fill="url(#paint8_linear_46_2513)"/>
<path d="M10.0495 15.4018C10.1728 15.281 10.3706 15.283 10.4914 15.4062C11.0023 15.9273 11.7132 16.25 12.5 16.25C13.2666 16.25 13.9611 15.9437 14.4687 15.446C14.592 15.3252 14.7898 15.3272 14.9106 15.4504C15.0315 15.5737 15.0295 15.7715 14.9062 15.8924C14.2865 16.4999 13.4368 16.875 12.5 16.875C11.5384 16.875 10.6686 16.4798 10.0451 15.8438C9.92431 15.7205 9.92628 15.5227 10.0495 15.4018Z" fill="url(#paint9_linear_46_2513)"/>
<defs>
<linearGradient id="paint0_linear_46_2513" x1="5.34727" y1="4.01432" x2="17.6748" y2="13.3351" gradientUnits="userSpaceOnUse">
<stop stop-color="#E167FF"/>
<stop offset="1" stop-color="#0094FF"/>
</linearGradient>
<linearGradient id="paint1_linear_46_2513" x1="5.34727" y1="4.01432" x2="17.6748" y2="13.3351" gradientUnits="userSpaceOnUse">
<stop stop-color="#E167FF"/>
<stop offset="1" stop-color="#0094FF"/>
</linearGradient>
<linearGradient id="paint2_linear_46_2513" x1="5.34727" y1="4.01432" x2="17.6748" y2="13.3351" gradientUnits="userSpaceOnUse">
<stop stop-color="#E167FF"/>
<stop offset="1" stop-color="#0094FF"/>
</linearGradient>
<linearGradient id="paint3_linear_46_2513" x1="5.34727" y1="4.01432" x2="17.6748" y2="13.3351" gradientUnits="userSpaceOnUse">
<stop stop-color="#E167FF"/>
<stop offset="1" stop-color="#0094FF"/>
</linearGradient>
<linearGradient id="paint4_linear_46_2513" x1="5.34727" y1="4.01432" x2="17.6748" y2="13.3351" gradientUnits="userSpaceOnUse">
<stop stop-color="#E167FF"/>
<stop offset="1" stop-color="#0094FF"/>
</linearGradient>
<linearGradient id="paint5_linear_46_2513" x1="5.34727" y1="4.01432" x2="17.6748" y2="13.3351" gradientUnits="userSpaceOnUse">
<stop stop-color="#E167FF"/>
<stop offset="1" stop-color="#0094FF"/>
</linearGradient>
<linearGradient id="paint6_linear_46_2513" x1="5.34727" y1="4.01432" x2="17.6748" y2="13.3351" gradientUnits="userSpaceOnUse">
<stop stop-color="#E167FF"/>
<stop offset="1" stop-color="#0094FF"/>
</linearGradient>
<linearGradient id="paint7_linear_46_2513" x1="5.34727" y1="4.01432" x2="17.6748" y2="13.3351" gradientUnits="userSpaceOnUse">
<stop stop-color="#E167FF"/>
<stop offset="1" stop-color="#0094FF"/>
</linearGradient>
<linearGradient id="paint8_linear_46_2513" x1="5.34727" y1="4.01432" x2="17.6748" y2="13.3351" gradientUnits="userSpaceOnUse">
<stop stop-color="#E167FF"/>
<stop offset="1" stop-color="#0094FF"/>
</linearGradient>
<linearGradient id="paint9_linear_46_2513" x1="5.34727" y1="4.01432" x2="17.6748" y2="13.3351" gradientUnits="userSpaceOnUse">
<stop stop-color="#E167FF"/>
<stop offset="1" stop-color="#0094FF"/>
</linearGradient>
</defs>
</svg>
