<svg width="18" height="18" viewBox="0 0 18 18" fill="none" xmlns="http://www.w3.org/2000/svg">
<path d="M6.32812 2.8125C5.16315 2.8125 4.21875 3.7569 4.21875 4.92188C4.21875 4.96365 4.21996 5.0051 4.22235 5.04621C4.23134 5.20128 4.11292 5.33428 3.95785 5.34328C3.80279 5.35227 3.66978 5.23386 3.66079 5.07879C3.65778 5.02684 3.65625 4.97452 3.65625 4.92188C3.65625 3.44624 4.85249 2.25 6.32812 2.25C6.38077 2.25 6.43309 2.25153 6.48504 2.25454C6.64011 2.26353 6.75852 2.39654 6.74953 2.5516C6.74053 2.70667 6.60753 2.82509 6.45246 2.8161C6.41135 2.81371 6.3699 2.8125 6.32812 2.8125Z" fill="url(#paint0_linear_46_2516)"/>
<path d="M6.74886 3.63731C6.7628 3.79201 6.64869 3.92872 6.49399 3.94267C5.88728 3.99734 5.40359 4.48103 5.34892 5.08774C5.33497 5.24244 5.19826 5.35655 5.04356 5.34261C4.88885 5.32867 4.77474 5.19196 4.78869 5.03725C4.86776 4.15977 5.56602 3.46151 6.4435 3.38244C6.59821 3.36849 6.73492 3.4826 6.74886 3.63731Z" fill="url(#paint1_linear_46_2516)"/>
<path fill-rule="evenodd" clip-rule="evenodd" d="M9.14062 7.45312C9.29595 7.45312 9.42188 7.57905 9.42188 7.73438V8.15625H10.125C10.2803 8.15625 10.4062 8.28217 10.4062 8.4375C10.4062 8.59283 10.2803 8.71875 10.125 8.71875H9.42188V9.28125H9.5625C9.70126 9.28125 9.90313 9.32056 10.0784 9.44676C10.268 9.58327 10.4062 9.80834 10.4062 10.125C10.4062 10.4891 10.2613 10.7326 10.036 10.8614C9.84715 10.9693 9.64297 10.9689 9.56958 10.9688L9.5625 10.9688H9.42188V11.5312C9.42188 11.6866 9.29595 11.8125 9.14062 11.8125C8.9853 11.8125 8.85938 11.6866 8.85938 11.5312V10.9688H8.15625C8.00092 10.9688 7.875 10.8428 7.875 10.6875C7.875 10.5322 8.00092 10.4062 8.15625 10.4062H8.85938V9.84375H8.71875C8.57999 9.84375 8.37812 9.80444 8.20285 9.67824C8.01324 9.54173 7.875 9.31666 7.875 9C7.875 8.68334 8.01324 8.45827 8.20285 8.32176C8.37812 8.19556 8.57999 8.15625 8.71875 8.15625H8.85938V7.73438C8.85938 7.57905 8.9853 7.45312 9.14062 7.45312ZM8.71875 8.71875H8.85938V9.28125H8.71875C8.67001 9.28125 8.59063 9.26431 8.53152 9.22176C8.48676 9.18952 8.4375 9.13333 8.4375 9C8.4375 8.86667 8.48676 8.81048 8.53152 8.77824C8.59063 8.73569 8.67001 8.71875 8.71875 8.71875ZM9.42188 10.4062V9.84375H9.5625C9.61124 9.84375 9.69062 9.86069 9.74973 9.90324C9.79449 9.93548 9.84375 9.99167 9.84375 10.125C9.84375 10.2308 9.82397 10.289 9.80815 10.3189C9.79344 10.3468 9.77615 10.362 9.75695 10.373C9.70619 10.402 9.63666 10.4062 9.5625 10.4062H9.42188Z" fill="url(#paint2_linear_46_2516)"/>
<path d="M8.4375 13.2188C8.4375 13.0634 8.56342 12.9375 8.71875 12.9375H9.5625C9.71783 12.9375 9.84375 13.0634 9.84375 13.2188C9.84375 13.3741 9.71783 13.5 9.5625 13.5H8.71875C8.56342 13.5 8.4375 13.3741 8.4375 13.2188Z" fill="url(#paint3_linear_46_2516)"/>
<path fill-rule="evenodd" clip-rule="evenodd" d="M6.1875 5.625C6.1875 5.15901 6.56526 4.78125 7.03125 4.78125H11.25C11.716 4.78125 12.0938 5.15901 12.0938 5.625V6.8421C12.2148 6.78325 12.3555 6.75 12.5156 6.75C12.7524 6.75 12.9469 6.82273 13.0978 6.94347C13.2443 7.06067 13.3345 7.21064 13.3905 7.34495C13.4465 7.47953 13.4732 7.61018 13.4863 7.70447C13.493 7.75235 13.4964 7.79272 13.4981 7.82203C13.499 7.83673 13.4995 7.84877 13.4997 7.85771L13.4999 7.89477L13.5 7.90906V9C13.5 9.15696 13.5546 9.317 13.6618 9.50789C13.7415 9.64996 13.8382 9.78949 13.9486 9.94884L13.9488 9.94914C13.992 10.0115 14.0373 10.0769 14.0845 10.1467C14.4102 10.628 14.7656 11.2345 14.7656 12.0938C14.7656 12.8267 14.5075 13.4447 14.1661 13.9093C13.8285 14.3689 13.3978 14.6937 13.0278 14.8314C12.9679 14.8537 12.892 14.9247 12.8479 15.0175C12.7084 15.3114 12.4271 15.528 12.1022 15.6691C11.7728 15.8121 11.3704 15.8906 10.9406 15.8906C10.3982 15.8906 10.1405 15.6932 9.73593 15.4208C9.53264 15.284 9.35414 15.1222 9.22385 14.946C9.15168 14.8484 9.08996 14.7403 9.04972 14.625H7.03125C6.77097 14.625 6.53822 14.5071 6.38344 14.3219C6.3325 14.3371 6.27987 14.3438 6.22768 14.3438C5.75809 14.3438 5.34375 13.984 5.34375 13.5C5.34375 13.3759 5.371 13.26 5.41944 13.1562C5.04657 13.0161 4.78125 12.6562 4.78125 12.2344C4.78125 11.9589 4.89438 11.7099 5.07671 11.5312C4.89438 11.3526 4.78125 11.1036 4.78125 10.8281C4.78125 10.4757 4.96643 10.1666 5.24479 9.99267C5.13001 9.83168 5.0625 9.63466 5.0625 9.42188C5.0625 8.87822 5.50322 8.4375 6.04688 8.4375C6.09457 8.4375 6.14161 8.44094 6.1875 8.44847V5.625ZM12.0938 13.7812V7.87611L12.0938 7.87333C12.0939 7.86992 12.0941 7.86383 12.0946 7.85546C12.0956 7.83862 12.0977 7.81308 12.1021 7.78186C12.1109 7.71794 12.1282 7.63766 12.16 7.5613C12.1919 7.48468 12.2336 7.4237 12.2848 7.38271C12.3317 7.34524 12.4009 7.3125 12.5156 7.3125C12.6304 7.3125 12.6996 7.34524 12.7464 7.38271C12.7977 7.4237 12.8393 7.48468 12.8712 7.5613C12.9031 7.63766 12.9203 7.71794 12.9292 7.78186C12.9335 7.81308 12.9356 7.83862 12.9366 7.85546C12.9371 7.86383 12.9373 7.86992 12.9374 7.87333L12.9375 7.87618V9C12.9375 9.29304 13.0411 9.55136 13.1713 9.78322C13.265 9.95029 13.3844 10.1225 13.5004 10.2899C13.5405 10.3479 13.5804 10.4055 13.6186 10.4619C13.9257 10.9157 14.2031 11.4061 14.2031 12.0938C14.2031 12.6902 13.9938 13.1938 13.7129 13.5763C13.4282 13.9637 13.0815 14.2112 12.8316 14.3042C12.6003 14.3903 12.429 14.5883 12.3398 14.7762C12.2794 14.9035 12.1313 15.0432 11.8782 15.1531C11.6297 15.261 11.3054 15.3281 10.9406 15.3281C10.5268 15.3281 10.3767 15.174 10.05 14.9542C9.89404 14.8492 9.77035 14.7348 9.68624 14.625H11.25C11.716 14.625 12.0938 14.2472 12.0938 13.7812ZM11.5312 5.625V13.7812C11.5312 13.9366 11.4053 14.0625 11.25 14.0625H7.03125C6.87592 14.0625 6.75 13.9366 6.75 13.7812V13.571C6.75002 13.5629 6.75003 13.555 6.75003 13.5472C6.75003 13.5388 6.75002 13.5306 6.75002 13.5225L6.75 13.5L6.75002 13.4775C6.75003 13.4618 6.75005 13.4456 6.75 13.429V5.625C6.75 5.46967 6.87592 5.34375 7.03125 5.34375H11.25C11.4053 5.34375 11.5312 5.46967 11.5312 5.625ZM6.1875 10.8281C6.1875 10.5951 5.99862 10.4062 5.76562 10.4062C5.53263 10.4062 5.34375 10.5951 5.34375 10.8281C5.34375 11.0611 5.53263 11.25 5.76562 11.25C5.99862 11.25 6.1875 11.0611 6.1875 10.8281ZM5.76562 11.8125C5.53263 11.8125 5.34375 12.0014 5.34375 12.2344C5.34375 12.4674 5.53263 12.6562 5.76562 12.6562C5.99862 12.6562 6.1875 12.4674 6.1875 12.2344C6.1875 12.0014 5.99862 11.8125 5.76562 11.8125ZM6.18417 13.2968C6.18742 13.3547 6.1875 13.4204 6.1875 13.5C6.1875 13.5796 6.18742 13.6453 6.18417 13.7032C6.18244 13.7342 6.17997 13.7587 6.17715 13.778C6.0103 13.7557 5.90625 13.6252 5.90625 13.5C5.90625 13.3748 6.0103 13.2443 6.17715 13.222C6.17997 13.2413 6.18244 13.2658 6.18417 13.2968ZM6.14671 9.03955C6.1754 9.10367 6.1875 9.21934 6.1875 9.42188C6.1875 9.62441 6.1754 9.74008 6.14671 9.8042C6.13706 9.82577 6.13043 9.82953 6.12923 9.83021C6.1267 9.83177 6.1063 9.84375 6.04688 9.84375C5.81388 9.84375 5.625 9.65487 5.625 9.42188C5.625 9.18888 5.81388 9 6.04688 9C6.1063 9 6.12656 9.0119 6.1291 9.01346C6.1303 9.01414 6.13706 9.01798 6.14671 9.03955Z" fill="url(#paint4_linear_46_2516)"/>
<path d="M13.4999 7.89477C13.4999 7.89477 13.5 7.86881 13.4997 7.85885L13.4999 7.86326L13.5 7.8688L13.5 7.87253L13.5 7.87392L13.4999 7.89477Z" fill="url(#paint5_linear_46_2516)"/>
<defs>
<linearGradient id="paint0_linear_46_2516" x1="3.69612" y1="2.1987" x2="17.0543" y2="13.0781" gradientUnits="userSpaceOnUse">
<stop stop-color="#E167FF"/>
<stop offset="1" stop-color="#0094FF"/>
</linearGradient>
<linearGradient id="paint1_linear_46_2516" x1="3.69612" y1="2.1987" x2="17.0543" y2="13.0781" gradientUnits="userSpaceOnUse">
<stop stop-color="#E167FF"/>
<stop offset="1" stop-color="#0094FF"/>
</linearGradient>
<linearGradient id="paint2_linear_46_2516" x1="3.69612" y1="2.1987" x2="17.0543" y2="13.0781" gradientUnits="userSpaceOnUse">
<stop stop-color="#E167FF"/>
<stop offset="1" stop-color="#0094FF"/>
</linearGradient>
<linearGradient id="paint3_linear_46_2516" x1="3.69612" y1="2.1987" x2="17.0543" y2="13.0781" gradientUnits="userSpaceOnUse">
<stop stop-color="#E167FF"/>
<stop offset="1" stop-color="#0094FF"/>
</linearGradient>
<linearGradient id="paint4_linear_46_2516" x1="3.69612" y1="2.1987" x2="17.0543" y2="13.0781" gradientUnits="userSpaceOnUse">
<stop stop-color="#E167FF"/>
<stop offset="1" stop-color="#0094FF"/>
</linearGradient>
<linearGradient id="paint5_linear_46_2516" x1="3.69612" y1="2.1987" x2="17.0543" y2="13.0781" gradientUnits="userSpaceOnUse">
<stop stop-color="#E167FF"/>
<stop offset="1" stop-color="#0094FF"/>
</linearGradient>
</defs>
</svg>
