<svg width="15" height="15" viewBox="0 0 15 15" fill="none" xmlns="http://www.w3.org/2000/svg">
<path fill-rule="evenodd" clip-rule="evenodd" d="M5.625 4.6875C5.625 4.16973 5.20527 3.75 4.6875 3.75C4.16973 3.75 3.75 4.16973 3.75 4.6875C3.75 5.20527 4.16973 5.625 4.6875 5.625C5.20527 5.625 5.625 5.20527 5.625 4.6875ZM4.6875 4.21875C4.94638 4.21875 5.15625 4.42862 5.15625 4.6875C5.15625 4.94638 4.94638 5.15625 4.6875 5.15625C4.42862 5.15625 4.21875 4.94638 4.21875 4.6875C4.21875 4.42862 4.42862 4.21875 4.6875 4.21875Z" fill="url(#paint0_linear_46_2517)"/>
<path fill-rule="evenodd" clip-rule="evenodd" d="M7.03125 6.09375C7.54902 6.09375 7.96875 6.51348 7.96875 7.03125C7.96875 7.54902 7.54902 7.96875 7.03125 7.96875C6.51348 7.96875 6.09375 7.54902 6.09375 7.03125C6.09375 6.51348 6.51348 6.09375 7.03125 6.09375ZM7.5 7.03125C7.5 6.77237 7.29013 6.5625 7.03125 6.5625C6.77237 6.5625 6.5625 6.77237 6.5625 7.03125C6.5625 7.29013 6.77237 7.5 7.03125 7.5C7.29013 7.5 7.5 7.29013 7.5 7.03125Z" fill="url(#paint1_linear_46_2517)"/>
<path d="M4.05302 7.66573C3.96149 7.5742 3.96149 7.4258 4.05302 7.33427L7.0999 4.2874C7.19143 4.19587 7.33982 4.19587 7.43135 4.2874C7.52288 4.37893 7.52288 4.52732 7.43135 4.61885L4.38448 7.66573C4.29295 7.75726 4.14455 7.75726 4.05302 7.66573Z" fill="url(#paint2_linear_46_2517)"/>
<path fill-rule="evenodd" clip-rule="evenodd" d="M5.85938 2.10938C3.78831 2.10938 2.10938 3.78831 2.10938 5.85938C2.10938 7.93044 3.78831 9.60938 5.85938 9.60938C7.93044 9.60938 9.60938 7.93044 9.60938 5.85938C9.60938 3.78831 7.93044 2.10938 5.85938 2.10938ZM2.57812 5.85938C2.57812 4.04719 4.04719 2.57812 5.85938 2.57812C7.67156 2.57812 9.14062 4.04719 9.14062 5.85938C9.14062 7.67156 7.67156 9.14062 5.85938 9.14062C4.04719 9.14062 2.57812 7.67156 2.57812 5.85938Z" fill="url(#paint3_linear_46_2517)"/>
<path fill-rule="evenodd" clip-rule="evenodd" d="M1.40625 5.85938C1.40625 3.39998 3.39998 1.40625 5.85938 1.40625C8.31877 1.40625 10.3125 3.39998 10.3125 5.85938C10.3125 7.00474 9.88008 8.04912 9.1696 8.83815L9.375 9.04355L9.67802 8.74052C9.76955 8.64899 9.91795 8.64899 10.0095 8.74052C10.101 8.83205 10.101 8.98045 10.0095 9.07198L9.70645 9.375L9.84375 9.5123L10.1468 9.20927C10.2383 9.11774 10.3867 9.11774 10.4782 9.20927C10.5698 9.3008 10.5698 9.4492 10.4782 9.54073L10.1752 9.84375L10.3125 9.98105L10.6155 9.67802C10.7071 9.58649 10.8554 9.58649 10.947 9.67802C11.0385 9.76955 11.0385 9.91795 10.947 10.0095L10.644 10.3125L10.7812 10.4498L11.0843 10.1468C11.1758 10.0552 11.3242 10.0552 11.4157 10.1468C11.5073 10.2383 11.5073 10.3867 11.4157 10.4782L11.1127 10.7813L11.25 10.9185L11.553 10.6155C11.6446 10.524 11.7929 10.524 11.8845 10.6155C11.976 10.7071 11.976 10.8554 11.8845 10.947L11.5815 11.25L11.7187 11.3873L12.0218 11.0843C12.1133 10.9927 12.2617 10.9927 12.3532 11.0843C12.4448 11.1758 12.4448 11.3242 12.3532 11.4157L12.0502 11.7188L12.1875 11.856L12.4905 11.553C12.5443 11.4993 12.6176 11.4771 12.6875 11.4865C12.7634 11.4763 12.8428 11.5035 12.8965 11.5659C13.0391 11.7317 13.125 11.9489 13.125 12.1853C13.125 12.6985 12.7181 13.125 12.2034 13.125C11.9478 13.125 11.7172 13.0187 11.5513 12.8494C11.503 12.8001 11.4809 12.7348 11.4848 12.6708C11.4808 12.6061 11.5035 12.54 11.553 12.4905L11.856 12.1875L11.7187 12.0502L11.4157 12.3532C11.3242 12.4448 11.1758 12.4448 11.0843 12.3532C10.9927 12.2617 10.9927 12.1133 11.0843 12.0218L11.3873 11.7188L11.25 11.5815L10.947 11.8845C10.8554 11.976 10.7071 11.976 10.6155 11.8845C10.524 11.7929 10.524 11.6446 10.6155 11.553L10.9185 11.25L10.7812 11.1127L10.4782 11.4157C10.3867 11.5073 10.2383 11.5073 10.1468 11.4157C10.0552 11.3242 10.0552 11.1758 10.1468 11.0843L10.4498 10.7813L10.3125 10.644L10.0095 10.947C9.91795 11.0385 9.76955 11.0385 9.67802 10.947C9.58649 10.8554 9.58649 10.7071 9.67802 10.6155L9.98104 10.3125L9.84375 10.1752L9.54073 10.4782C9.4492 10.5698 9.3008 10.5698 9.20927 10.4782C9.11774 10.3867 9.11774 10.2383 9.20927 10.1468L9.51229 9.84375L9.375 9.70646L9.07198 10.0095C8.98045 10.101 8.83205 10.101 8.74052 10.0095C8.64899 9.91795 8.64899 9.76955 8.74052 9.67802L9.04354 9.375L8.83814 9.1696C8.04911 9.88009 7.00474 10.3125 5.85938 10.3125C3.39998 10.3125 1.40625 8.31877 1.40625 5.85938ZM5.85938 1.875C3.65887 1.875 1.875 3.65887 1.875 5.85938C1.875 8.05988 3.65887 9.84375 5.85938 9.84375C8.05988 9.84375 9.84375 8.05988 9.84375 5.85938C9.84375 3.65887 8.05988 1.875 5.85938 1.875ZM12.0707 12.6358C12.1127 12.6491 12.1573 12.6563 12.2034 12.6563C12.4478 12.6563 12.6562 12.4512 12.6562 12.1853C12.6562 12.1436 12.6511 12.1033 12.6414 12.0651L12.3543 12.3521L12.3532 12.3532L12.3521 12.3543L12.0707 12.6358Z" fill="url(#paint4_linear_46_2517)"/>
<defs>
<linearGradient id="paint0_linear_46_2517" x1="1.44831" y1="1.36218" x2="13.1671" y2="13.0809" gradientUnits="userSpaceOnUse">
<stop stop-color="#E167FF"/>
<stop offset="1" stop-color="#0094FF"/>
</linearGradient>
<linearGradient id="paint1_linear_46_2517" x1="1.44831" y1="1.36218" x2="13.1671" y2="13.0809" gradientUnits="userSpaceOnUse">
<stop stop-color="#E167FF"/>
<stop offset="1" stop-color="#0094FF"/>
</linearGradient>
<linearGradient id="paint2_linear_46_2517" x1="1.44831" y1="1.36218" x2="13.1671" y2="13.0809" gradientUnits="userSpaceOnUse">
<stop stop-color="#E167FF"/>
<stop offset="1" stop-color="#0094FF"/>
</linearGradient>
<linearGradient id="paint3_linear_46_2517" x1="1.44831" y1="1.36218" x2="13.1671" y2="13.0809" gradientUnits="userSpaceOnUse">
<stop stop-color="#E167FF"/>
<stop offset="1" stop-color="#0094FF"/>
</linearGradient>
<linearGradient id="paint4_linear_46_2517" x1="1.44831" y1="1.36218" x2="13.1671" y2="13.0809" gradientUnits="userSpaceOnUse">
<stop stop-color="#E167FF"/>
<stop offset="1" stop-color="#0094FF"/>
</linearGradient>
</defs>
</svg>
