<svg width="15" height="15" viewBox="0 0 15 15" fill="none" xmlns="http://www.w3.org/2000/svg">
<path d="M6.22855 3.52536C6.35261 3.56229 6.42325 3.69279 6.38633 3.81686C6.34851 3.94391 6.32812 4.07874 6.32812 4.21875C6.32812 4.35876 6.34851 4.49359 6.38633 4.62065C6.42325 4.74471 6.35261 4.87522 6.22855 4.91214C6.10448 4.94906 5.97398 4.87842 5.93705 4.75436C5.88646 4.58436 5.85938 4.40451 5.85938 4.21875C5.85938 4.03299 5.88646 3.85314 5.93705 3.68315C5.97398 3.55908 6.10448 3.48844 6.22855 3.52536Z" fill="url(#paint0_linear_46_2519)"/>
<path d="M9.2402 3.52536C9.36427 3.48844 9.49477 3.55908 9.5317 3.68315C9.58229 3.85314 9.60938 4.03299 9.60938 4.21875C9.60938 4.40451 9.58229 4.58436 9.5317 4.75436C9.49477 4.87842 9.36427 4.94906 9.2402 4.91214C9.11614 4.87522 9.0455 4.74471 9.08242 4.62065C9.12024 4.49359 9.14062 4.35876 9.14062 4.21875C9.14062 4.07874 9.12024 3.94392 9.08242 3.81686C9.0455 3.69279 9.11614 3.56229 9.2402 3.52536Z" fill="url(#paint1_linear_46_2519)"/>
<path d="M7.96875 2.57812C7.96875 2.44868 7.86382 2.34375 7.73438 2.34375C7.60493 2.34375 7.5 2.44868 7.5 2.57812V2.61494C7.09945 2.72661 6.79688 3.08063 6.79688 3.51562C6.79688 3.99036 7.15725 4.36864 7.61207 4.44072C7.63574 4.44876 7.66111 4.45312 7.6875 4.45312C7.98675 4.45312 8.20313 4.67701 8.20313 4.92188C8.20313 5.16674 7.98675 5.39062 7.6875 5.39062C7.48625 5.39062 7.31784 5.28659 7.23294 5.14316C7.16701 5.03177 7.02326 4.99492 6.91187 5.06085C6.80048 5.12678 6.76363 5.27053 6.82956 5.38192C6.97047 5.61999 7.21492 5.78993 7.5 5.84235V5.85938C7.5 5.98882 7.60493 6.09375 7.73438 6.09375C7.86382 6.09375 7.96875 5.98882 7.96875 5.85938V5.82019C8.36829 5.70637 8.67188 5.35616 8.67188 4.92188C8.67188 4.44338 8.30334 4.06695 7.84398 3.99632C7.8207 3.98857 7.7958 3.98438 7.76992 3.98438C7.48038 3.98438 7.26562 3.76375 7.26562 3.51562C7.26562 3.2675 7.48038 3.04688 7.76992 3.04688C7.97698 3.04688 8.14946 3.16198 8.22779 3.31894C8.28559 3.43476 8.42634 3.4818 8.54216 3.424C8.65798 3.36619 8.70501 3.22545 8.64721 3.10963C8.51667 2.84807 8.26617 2.65732 7.96875 2.59776V2.57812Z" fill="url(#paint2_linear_46_2519)"/>
<path fill-rule="evenodd" clip-rule="evenodd" d="M5.15625 4.21875C5.15625 2.79489 6.31052 1.64062 7.73438 1.64062C9.15823 1.64062 10.3125 2.79489 10.3125 4.21875C10.3125 5.64261 9.15823 6.79688 7.73438 6.79688C6.31052 6.79688 5.15625 5.64261 5.15625 4.21875ZM7.73438 2.10938C6.5694 2.10938 5.625 3.05377 5.625 4.21875C5.625 5.38373 6.5694 6.32812 7.73438 6.32812C8.89935 6.32812 9.84375 5.38373 9.84375 4.21875C9.84375 3.05377 8.89935 2.10938 7.73438 2.10938Z" fill="url(#paint3_linear_46_2519)"/>
<path fill-rule="evenodd" clip-rule="evenodd" d="M2.46094 4.10156C2.46094 4.09447 2.46062 4.08746 2.46001 4.08052L2.99833 4.61885C3.08986 4.71038 3.23826 4.71038 3.32979 4.61885C3.42132 4.52732 3.42132 4.37893 3.32979 4.2874L2.39229 3.3499C2.30076 3.25837 2.15236 3.25837 2.06083 3.3499L1.12333 4.2874C1.03181 4.37893 1.03181 4.52732 1.12333 4.61885C1.21486 4.71038 1.36326 4.71038 1.45479 4.61885L1.99312 4.08052C1.9925 4.08746 1.99219 4.09447 1.99219 4.10156V12.0213C1.64861 12.1603 1.40625 12.4972 1.40625 12.8906C1.40625 13.4084 1.82598 13.8281 2.34375 13.8281C2.78059 13.8281 3.14764 13.5294 3.25171 13.125H5.15625V13.5938C5.15625 13.7232 5.26118 13.8281 5.39062 13.8281C5.52007 13.8281 5.625 13.7232 5.625 13.5938V13.125H7.96875V13.5938C7.96875 13.7232 8.07368 13.8281 8.20312 13.8281C8.33257 13.8281 8.4375 13.7232 8.4375 13.5938V13.125H10.7812V13.5938C10.7812 13.7232 10.8862 13.8281 11.0156 13.8281C11.1451 13.8281 11.25 13.7232 11.25 13.5938V13.125H13.0078C13.0149 13.125 13.0219 13.1247 13.0288 13.1241L12.4905 13.6624C12.399 13.7539 12.399 13.9023 12.4905 13.9939C12.5821 14.0854 12.7304 14.0854 12.822 13.9939L13.7595 13.0564C13.851 12.9648 13.851 12.8164 13.7595 12.7249L12.822 11.7874C12.7304 11.6959 12.5821 11.6959 12.4905 11.7874C12.399 11.8789 12.399 12.0273 12.4905 12.1189L13.0288 12.6572C13.0219 12.6566 13.0149 12.6562 13.0078 12.6562H11.25V12.1875C11.25 12.0581 11.1451 11.9531 11.0156 11.9531C10.8862 11.9531 10.7812 12.0581 10.7812 12.1875V12.6562H8.4375V12.1875C8.4375 12.0581 8.33257 11.9531 8.20312 11.9531C8.07368 11.9531 7.96875 12.0581 7.96875 12.1875V12.6562H5.625V12.1875C5.625 12.0581 5.52007 11.9531 5.39062 11.9531C5.26118 11.9531 5.15625 12.0581 5.15625 12.1875V12.6562H3.25171C3.1571 12.2886 2.84511 12.0083 2.46094 11.9604V4.10156ZM13.2413 12.8696C13.2419 12.8765 13.2422 12.8835 13.2422 12.8906C13.2422 12.8977 13.2419 12.9047 13.2413 12.9117L13.2623 12.8906L13.2413 12.8696ZM2.22656 3.84708L2.2476 3.86812C2.24067 3.8675 2.23365 3.86719 2.22656 3.86719C2.21947 3.86719 2.21246 3.8675 2.20552 3.86812L2.22656 3.84708ZM2.34375 12.4219C2.60263 12.4219 2.8125 12.6317 2.8125 12.8906C2.8125 13.1495 2.60263 13.3594 2.34375 13.3594C2.08487 13.3594 1.875 13.1495 1.875 12.8906C1.875 12.6317 2.08487 12.4219 2.34375 12.4219Z" fill="url(#paint4_linear_46_2519)"/>
<path fill-rule="evenodd" clip-rule="evenodd" d="M12.8906 5.15625C12.3729 5.15625 11.9531 5.57598 11.9531 6.09375C11.9531 6.18023 11.9648 6.26397 11.9868 6.34348C11.9723 6.34903 11.9581 6.35611 11.9445 6.36477L10.6554 7.18508C10.6184 7.20864 10.5887 7.24211 10.5698 7.28169L9.42368 9.67816L8.36885 8.62333C8.32269 8.57717 8.25937 8.55236 8.19413 8.55486C8.1289 8.55737 8.06766 8.58697 8.02517 8.63653L6.77049 10.1003L5.42483 8.96171C5.3767 8.92099 5.3142 8.90137 5.25144 8.90729C5.18867 8.9132 5.13094 8.94416 5.09127 8.99316L3.09908 11.4541C3.01764 11.5547 3.03317 11.7023 3.13378 11.7837C3.23439 11.8652 3.38197 11.8496 3.46342 11.749L5.3049 9.47426L6.64548 10.6086C6.74385 10.6918 6.89097 10.6801 6.97483 10.5822L8.21636 9.13376L9.32646 10.2439C9.38024 10.2976 9.45679 10.322 9.53176 10.3091C9.60673 10.2963 9.67081 10.2479 9.70363 10.1792L10.9637 7.5445L12.1961 6.76023C12.2034 6.75565 12.2102 6.75073 12.2168 6.74552C12.3872 6.92171 12.6261 7.03125 12.8906 7.03125C13.4084 7.03125 13.8281 6.61152 13.8281 6.09375C13.8281 5.57598 13.4084 5.15625 12.8906 5.15625ZM12.4219 6.09375C12.4219 5.83487 12.6317 5.625 12.8906 5.625C13.1495 5.625 13.3594 5.83487 13.3594 6.09375C13.3594 6.35263 13.1495 6.5625 12.8906 6.5625C12.6317 6.5625 12.4219 6.35263 12.4219 6.09375Z" fill="url(#paint5_linear_46_2519)"/>
<defs>
<linearGradient id="paint0_linear_46_2519" x1="1.10053" y1="1.59391" x2="13.5176" y2="14.3624" gradientUnits="userSpaceOnUse">
<stop stop-color="#E167FF"/>
<stop offset="1" stop-color="#0094FF"/>
</linearGradient>
<linearGradient id="paint1_linear_46_2519" x1="1.10053" y1="1.59391" x2="13.5176" y2="14.3624" gradientUnits="userSpaceOnUse">
<stop stop-color="#E167FF"/>
<stop offset="1" stop-color="#0094FF"/>
</linearGradient>
<linearGradient id="paint2_linear_46_2519" x1="1.10053" y1="1.59391" x2="13.5176" y2="14.3624" gradientUnits="userSpaceOnUse">
<stop stop-color="#E167FF"/>
<stop offset="1" stop-color="#0094FF"/>
</linearGradient>
<linearGradient id="paint3_linear_46_2519" x1="1.10053" y1="1.59391" x2="13.5176" y2="14.3624" gradientUnits="userSpaceOnUse">
<stop stop-color="#E167FF"/>
<stop offset="1" stop-color="#0094FF"/>
</linearGradient>
<linearGradient id="paint4_linear_46_2519" x1="1.10053" y1="1.59391" x2="13.5176" y2="14.3624" gradientUnits="userSpaceOnUse">
<stop stop-color="#E167FF"/>
<stop offset="1" stop-color="#0094FF"/>
</linearGradient>
<linearGradient id="paint5_linear_46_2519" x1="1.10053" y1="1.59391" x2="13.5176" y2="14.3624" gradientUnits="userSpaceOnUse">
<stop stop-color="#E167FF"/>
<stop offset="1" stop-color="#0094FF"/>
</linearGradient>
</defs>
</svg>
