<?xml version="1.0" encoding="UTF-8"?>
<svg id="Layer_1" xmlns="http://www.w3.org/2000/svg" version="1.1" viewBox="0 0 32 32">
  <!-- Generator: Adobe Illustrator 29.8.2, SVG Export Plug-In . SVG Version: 2.1.1 Build 3)  -->
  <defs>
    <style>
      .st0 {
        fill: #fff;
      }

      .st1 {
        fill: #3e60ab;
      }
    </style>
  </defs>
  <rect class="st1" x="0" y="0" width="32" height="32" rx="9.66" ry="9.66"/>
  <g>
    <path class="st0" d="M16,26.97c-6.05,0-10.97-4.92-10.97-10.97S9.95,5.03,16,5.03s10.97,4.92,10.97,10.97-4.92,10.97-10.97,10.97ZM16,7.23c-4.84,0-8.77,3.94-8.77,8.77s3.94,8.77,8.77,8.77,8.77-3.94,8.77-8.77-3.94-8.77-8.77-8.77Z"/>
    <path class="st0" d="M9.03,15.27c-.08,0-.16-.01-.23-.04-.38-.13-.59-.54-.46-.93.94-2.8,3.17-5.03,5.97-5.97.38-.13.8.08.93.46.13.38-.08.8-.46.93-2.37.8-4.26,2.69-5.05,5.05-.1.31-.39.5-.69.5Z"/>
  </g>
</svg>