<svg width="150" height="21" viewBox="0 0 150 21" fill="none" xmlns="http://www.w3.org/2000/svg">
<path d="M32.7359 7.46895C32.6729 6.87395 32.4207 6.41195 31.9655 6.08295C31.5102 5.75395 30.9009 5.59295 30.1235 5.59295C29.5982 5.59295 29.1499 5.66994 28.7857 5.81694C28.4215 5.95694 28.1414 6.15995 27.9523 6.41195C27.7632 6.66395 27.6721 6.95795 27.6721 7.27995C27.6651 7.55295 27.7212 7.78395 27.8402 7.98695C27.9663 8.18995 28.1484 8.36495 28.3725 8.51195C28.5966 8.65195 28.8558 8.77795 29.1499 8.88995C29.4441 8.99495 29.7593 9.07895 30.0884 9.15595L31.4612 9.47795C32.1266 9.62495 32.7429 9.82094 33.2962 10.0659C33.8565 10.3109 34.3327 10.6119 34.746 10.9689C35.1522 11.3259 35.4674 11.7459 35.6915 12.2359C35.9226 12.7189 36.0347 13.2789 36.0417 13.9089C36.0417 14.8329 35.7965 15.6309 35.3273 16.3099C34.858 16.9819 34.1857 17.5069 33.2962 17.8779C32.4137 18.2489 31.3561 18.4309 30.1095 18.4309C28.8628 18.4309 27.7982 18.2419 26.8877 17.8709C25.9772 17.4999 25.2628 16.9469 24.7516 16.2119C24.2473 15.4769 23.9811 14.5669 23.9531 13.4819H27.0768C27.1118 13.9859 27.2589 14.4059 27.5181 14.7489C27.7842 15.0849 28.1344 15.3369 28.5686 15.5049C29.0099 15.6729 29.5141 15.7569 30.0674 15.7569C30.6207 15.7569 31.09 15.6799 31.4892 15.5189C31.8954 15.3649 32.2106 15.1409 32.4347 14.8609C32.6588 14.5809 32.7709 14.2589 32.7709 13.8949C32.7709 13.5589 32.6658 13.2719 32.4627 13.0409C32.2666 12.8099 31.9725 12.6139 31.5803 12.4529C31.195 12.2919 30.7258 12.1449 30.1725 12.0119L28.5056 11.5989C27.2169 11.2909 26.2013 10.8079 25.4519 10.1499C24.7025 9.49195 24.3383 8.60995 24.3383 7.49695C24.3383 6.58695 24.5765 5.78895 25.0737 5.10295C25.578 4.42395 26.2644 3.89195 27.1399 3.50695C28.0153 3.12195 29.0099 2.93295 30.1235 2.93295C31.2371 2.93295 32.2456 3.12195 33.0931 3.50695C33.9405 3.89195 34.6059 4.42395 35.0751 5.10295C35.5444 5.78195 35.7895 6.57295 35.8035 7.46895H32.7079H32.7359ZM37.6315 5.62795V2.92595H50.1823V5.62795H45.5038V18.4099H42.3101V5.62795H37.6315ZM65.5907 10.6679C65.5907 12.3129 65.2755 13.7059 64.6452 14.8609C64.0218 16.0159 63.1604 16.8909 62.0748 17.4999C60.9962 18.1019 59.7845 18.4029 58.4328 18.4029C57.0811 18.4029 55.8554 18.1019 54.7768 17.4929C53.6982 16.8839 52.8438 16.0019 52.2204 14.8539C51.5971 13.6989 51.2819 12.3059 51.2819 10.6679C51.2819 9.02995 51.5971 7.62995 52.2204 6.47495C52.8438 5.31995 53.6982 4.44495 54.7768 3.84295C55.8554 3.23395 57.0741 2.93295 58.4328 2.93295C59.7915 2.93295 60.9962 3.23395 62.0748 3.84295C63.1604 4.44495 64.0148 5.32695 64.6452 6.47495C65.2755 7.62995 65.5907 9.02295 65.5907 10.6679ZM62.3129 10.5629C62.3129 9.48495 62.1518 8.57495 61.8297 7.83295C61.5145 7.09095 61.0592 6.53095 60.4779 6.14595C59.8966 5.76095 59.2172 5.57195 58.4328 5.57195C57.6484 5.57195 56.969 5.76095 56.3877 6.14595C55.8064 6.53095 55.3511 7.09095 55.029 7.83295C54.7138 8.57495 54.5527 9.48495 54.5527 10.5629C54.5527 11.6409 54.7138 12.5509 55.029 13.2929C55.3511 14.0349 55.8064 14.5949 56.3877 14.9799C56.969 15.3649 57.6484 15.5539 58.4328 15.5539C59.2172 15.5539 59.8966 15.3649 60.4779 14.9799C61.0592 14.5949 61.5075 14.0349 61.8297 13.2929C62.1518 12.5509 62.3129 11.6409 62.3129 10.5629ZM81.4683 8.40695H78.1975C78.1415 7.98695 78.0154 7.62295 77.8333 7.29395C77.6512 6.96495 77.4131 6.68494 77.1259 6.45394C76.8388 6.22294 76.5026 6.04795 76.1244 5.92195C75.7532 5.79595 75.347 5.73995 74.9057 5.73995C74.1143 5.73995 73.4279 5.93595 72.8396 6.32095C72.2513 6.70595 71.796 7.26595 71.4739 8.00095C71.1517 8.72895 70.9906 9.61795 70.9906 10.6679C70.9906 11.7179 71.1517 12.6419 71.4739 13.3769C71.8031 14.1049 72.2583 14.6579 72.8466 15.0359C73.4349 15.4069 74.1143 15.5959 74.8847 15.5959C75.319 15.5959 75.7182 15.5399 76.0894 15.4279C76.4606 15.3159 76.7898 15.1479 77.0839 14.9379C77.3711 14.7139 77.6092 14.4479 77.7983 14.1329C77.9944 13.8179 78.1275 13.4609 78.2045 13.0619L81.4753 13.0759C81.3912 13.7689 81.1811 14.4339 80.838 15.0779C80.5088 15.7149 80.0535 16.2889 79.4862 16.7929C78.9259 17.2899 78.2535 17.6889 77.4691 17.9829C76.6917 18.2699 75.8162 18.4169 74.8357 18.4169C73.47 18.4169 72.2513 18.1159 71.1797 17.5069C70.1081 16.8979 69.2677 16.0159 68.6443 14.8679C68.028 13.7129 67.7198 12.3199 67.7198 10.6819C67.7198 9.04395 68.035 7.64395 68.6584 6.48895C69.2817 5.33395 70.1362 4.45895 71.2077 3.85695C72.2793 3.24795 73.491 2.94695 74.8357 2.94695C75.7182 2.94695 76.5446 3.07295 77.301 3.31795C78.0644 3.56295 78.7368 3.91995 79.3251 4.38895C79.9134 4.85795 80.3897 5.42494 80.7539 6.10394C81.1251 6.78294 81.3632 7.55295 81.4683 8.42795V8.40695ZM83.7865 18.4099V2.92595H87.0153V9.75095H87.2184L92.7164 2.92595H96.5895L90.9164 9.85595L96.6525 18.4029H92.7864L88.5982 12.0399L87.0083 14.0069V18.4099H83.7795H83.7865ZM99.454 18.4099V2.92595H101.303V16.7439H108.405V18.4099H99.454ZM111.269 18.4099V2.92595H120.493V4.59194H113.125V9.82095H120.017V11.4869H113.125V16.7509H120.619V18.4169H111.276L111.269 18.4099ZM135.944 2.92595V18.4099H134.151L125.823 6.25795H125.676V18.4099H123.827V2.92595H125.62L133.976 15.1129H134.123V2.92595H135.944ZM148.004 6.90195C147.913 6.15295 147.549 5.57894 146.912 5.16594C146.274 4.75294 145.497 4.54995 144.565 4.54995C143.886 4.54995 143.298 4.65495 142.787 4.87195C142.282 5.08895 141.89 5.38294 141.61 5.76094C141.33 6.13894 141.19 6.56595 141.19 7.04895C141.19 7.44795 141.288 7.79794 141.484 8.08494C141.68 8.37194 141.939 8.60995 142.247 8.79895C142.555 8.98795 142.878 9.14195 143.214 9.26095C143.55 9.37995 143.865 9.47094 144.145 9.54794L145.7 9.96095C146.099 10.0659 146.541 10.2059 147.031 10.3879C147.521 10.5699 147.99 10.8149 148.439 11.1299C148.894 11.4379 149.265 11.8369 149.559 12.3199C149.853 12.8029 150 13.4049 150 14.1049C150 14.9169 149.783 15.6519 149.349 16.3099C148.922 16.9679 148.291 17.4929 147.472 17.8779C146.653 18.2629 145.651 18.4589 144.481 18.4589C143.389 18.4589 142.436 18.2839 141.638 17.9339C140.839 17.5839 140.216 17.1009 139.761 16.4779C139.306 15.8549 139.053 15.1339 138.99 14.3079H140.903C140.952 14.8749 141.148 15.3509 141.484 15.7219C141.827 16.0929 142.261 16.3659 142.78 16.5479C143.305 16.7229 143.872 16.8139 144.481 16.8139C145.189 16.8139 145.819 16.7019 146.386 16.4779C146.947 16.2469 147.395 15.9319 147.724 15.5189C148.053 15.1059 148.214 14.6229 148.214 14.0769C148.214 13.5799 148.074 13.1669 147.787 12.8519C147.507 12.5369 147.129 12.2849 146.667 12.0889C146.204 11.8929 145.707 11.7179 145.168 11.5709L143.291 11.0389C142.093 10.7029 141.155 10.2199 140.454 9.58995C139.761 8.95995 139.411 8.14095 139.411 7.12595C139.411 6.27895 139.642 5.54395 140.104 4.92095C140.573 4.29095 141.197 3.80095 141.988 3.45095C142.78 3.10095 143.662 2.91895 144.636 2.91895C145.609 2.91895 146.499 3.09395 147.262 3.44395C148.025 3.78695 148.635 4.25595 149.083 4.85795C149.538 5.45295 149.776 6.13895 149.797 6.89495H148.004V6.90195Z" fill="white"/>
<path d="M10.5057 21C4.71355 21 0 16.289 0 10.5C0 4.711 4.71355 0 10.5057 0C16.2978 0 21.0114 4.711 21.0114 10.5C21.0114 16.289 16.2978 21 10.5057 21ZM10.5057 2.1C5.86918 2.1 2.10114 5.866 2.10114 10.5C2.10114 15.134 5.86918 18.9 10.5057 18.9C15.1422 18.9 18.9102 15.134 18.9102 10.5C18.9102 5.866 15.1422 2.1 10.5057 2.1Z" fill="white"/>
<path d="M3.82418 9.79932C3.74714 9.79932 3.6771 9.78532 3.60006 9.76432C3.23586 9.63832 3.03976 9.24632 3.15882 8.87532C4.06231 6.19432 6.19847 4.05932 8.88092 3.15632C9.24512 3.03032 9.64434 3.22632 9.7704 3.59732C9.89647 3.96132 9.70037 4.36032 9.32916 4.48632C7.05994 5.24932 5.25296 7.05532 4.48954 9.32332C4.39149 9.61732 4.11834 9.79932 3.82418 9.79932Z" fill="white"/>
</svg>
