<svg width="24" height="24" viewBox="0 0 24 24" fill="none" xmlns="http://www.w3.org/2000/svg">
<path d="M10.1434 6.62802C10.93 4.66702 11.3233 3.68652 11.9996 3.68652C12.6759 3.68652 13.0692 4.66702 13.8558 6.62802L13.8925 6.71934C14.3369 7.82721 14.5591 8.38114 15.0119 8.71783C15.4648 9.05452 16.0592 9.10776 17.2481 9.21423L17.4631 9.23348C19.4089 9.40774 20.3818 9.49488 20.59 10.1139C20.7981 10.7328 20.0756 11.3902 18.6306 12.7049L18.1483 13.1436C17.4168 13.8092 17.051 14.1419 16.8806 14.5781C16.8488 14.6594 16.8223 14.7428 16.8014 14.8276C16.6894 15.2822 16.7965 15.765 17.0107 16.7304L17.0774 17.031C17.471 18.8053 17.6679 19.6925 17.3242 20.0751C17.1958 20.2181 17.0289 20.3211 16.8434 20.3717C16.3472 20.5071 15.6428 19.933 14.2338 18.7849C13.3086 18.031 12.8461 17.6541 12.3149 17.5693C12.106 17.5359 11.8932 17.5359 11.6843 17.5693C11.1532 17.6541 10.6906 18.031 9.7654 18.7849C8.35645 19.933 7.65197 20.5071 7.15577 20.3717C6.97035 20.3211 6.80344 20.2181 6.67502 20.0751C6.33134 19.6925 6.52818 18.8053 6.92185 17.031L6.98853 16.7304C7.20274 15.765 7.30984 15.2822 7.19779 14.8276C7.17688 14.7428 7.15045 14.6594 7.11865 14.5781C6.94817 14.1419 6.58242 13.8092 5.85091 13.1436L5.36863 12.7049C3.92359 11.3902 3.20107 10.7328 3.40924 10.1139C3.61742 9.49488 4.59033 9.40774 6.53614 9.23348L6.75108 9.21423C7.94 9.10775 8.53445 9.05452 8.9873 8.71783C9.44015 8.38114 9.66235 7.8272 10.1067 6.71934L10.1434 6.62802Z" stroke="#222222"/>
</svg>
