<svg width="24" height="24" viewBox="0 0 24 24" fill="none" xmlns="http://www.w3.org/2000/svg">
<path d="M13.7891 20.1055L14.0127 20.5527L13.7891 20.1055ZM10.2109 20.1055L9.98733 20.5527L10.2109 20.1055ZM14.0025 19.7642L13.5026 19.7537L14.0025 19.7642ZM8.91546 15.2318L9.31055 14.9254L8.91546 15.2318ZM15.5974 14.8019L15.8975 15.2018L15.5974 14.8019ZM14.8583 15.6835L15.3203 15.8746L14.8583 15.6835ZM15.0836 15.2318L14.6885 14.9254L15.0836 15.2318ZM12 4V4.5C15.0376 4.5 17.5 6.96243 17.5 10H18H18.5C18.5 6.41015 15.5899 3.5 12 3.5V4ZM18 10H17.5C17.5 11.8 16.6357 13.3978 15.2973 14.4019L15.5974 14.8019L15.8975 15.2018C17.4766 14.017 18.5 12.1281 18.5 10H18ZM14.8583 15.6835L14.3962 15.4923C13.8381 16.8417 13.5333 18.2863 13.5026 19.7537L14.0025 19.7642L14.5024 19.7746C14.5305 18.4319 14.8093 17.1098 15.3203 15.8746L14.8583 15.6835ZM13.7891 20.1055L13.5655 19.6583C12.5801 20.1509 11.4199 20.1509 10.4345 19.6583L10.2109 20.1055L9.98733 20.5527C11.2542 21.1861 12.7458 21.1861 14.0127 20.5527L13.7891 20.1055ZM9.99753 19.7642L10.4974 19.7537C10.4666 18.286 10.1612 16.8414 9.60273 15.4921L9.14073 15.6833L8.67874 15.8745C9.19002 17.1098 9.46948 18.4319 9.49764 19.7746L9.99753 19.7642ZM8.40185 14.8019L8.70198 14.402C7.36399 13.3978 6.5 11.7999 6.5 10H6H5.5C5.5 12.1278 6.5229 14.0169 8.10171 15.2018L8.40185 14.8019ZM6 10H6.5C6.5 6.96243 8.96243 4.5 12 4.5V4V3.5C8.41015 3.5 5.5 6.41015 5.5 10H6ZM10.2109 20.1055L10.4345 19.6583C10.4765 19.6793 10.4967 19.7186 10.4974 19.7537L9.99753 19.7642L9.49764 19.7746C9.50443 20.0988 9.68678 20.4024 9.98733 20.5527L10.2109 20.1055ZM14.0025 19.7642L13.5026 19.7537C13.5033 19.7186 13.5235 19.6793 13.5655 19.6583L13.7891 20.1055L14.0127 20.5527C14.3132 20.4024 14.4956 20.0988 14.5024 19.7746L14.0025 19.7642ZM9.14073 15.6833L9.60273 15.4921C9.51593 15.2823 9.44294 15.0961 9.31055 14.9254L8.91546 15.2318L8.52036 15.5382C8.55276 15.58 8.57503 15.6239 8.67874 15.8745L9.14073 15.6833ZM8.40185 14.8019L8.10171 15.2018C8.41969 15.4405 8.49019 15.4993 8.52036 15.5382L8.91546 15.2318L9.31055 14.9254C9.17593 14.7518 8.95895 14.5949 8.70198 14.402L8.40185 14.8019ZM15.5974 14.8019L15.2973 14.4019C15.0402 14.5948 14.8232 14.7517 14.6885 14.9254L15.0836 15.2318L15.4787 15.5383C15.5088 15.4994 15.5794 15.4405 15.8975 15.2018L15.5974 14.8019ZM14.8583 15.6835L15.3203 15.8746C15.424 15.624 15.4462 15.5801 15.4787 15.5383L15.0836 15.2318L14.6885 14.9254C14.556 15.0962 14.483 15.2825 14.3962 15.4923L14.8583 15.6835Z" fill="#222222"/>
<path d="M14.5 16.5C12.8951 17.1419 11.1049 17.1419 9.5 16.5" stroke="#222222"/>
<path d="M11 14V9.75C11 9.05964 10.4404 8.5 9.75 8.5C9.05964 8.5 8.5 9.05964 8.5 9.75C8.5 10.4404 9.05964 11 9.75 11H14.25C14.9404 11 15.5 10.4404 15.5 9.75C15.5 9.05964 14.9404 8.5 14.25 8.5C13.5596 8.5 13 9.05964 13 9.75V14" stroke="#222222" stroke-linecap="round"/>
</svg>
